<?xml version="1.0" encoding="UTF-8"?>
<svg xmlns="http://www.w3.org/2000/svg" xmlns:xlink="http://www.w3.org/1999/xlink" width="54px" height="42px" viewBox="0 0 54 42" version="1.1">
  <title>noun-car-1053444-FFFFFF</title>
  <defs>
    <linearGradient x1="69.7865773%" y1="63.7261022%" x2="24.2736049%" y2="19.7530864%" id="linearGradient-1">
      <stop stop-color="#CE43FF" offset="0%"></stop>
      <stop stop-color="#4280FF" offset="51.4675754%"></stop>
      <stop stop-color="#70ED9B" offset="100%"></stop>
    </linearGradient>
  </defs>
  <g id="Homepage" stroke="none" stroke-width="1" fill="none" fill-rule="evenodd">
    <g id="Home-ALT---Desktop" transform="translate(-444.000000, -2459.000000)" fill="url(#linearGradient-1)" fill-rule="nonzero">
      <g id="Who-Needs-Short-Term-Copy" transform="translate(361.000000, 2318.000000)">
        <g id="Small-Card" transform="translate(0.000000, 111.000000)">
          <g id="noun-car-1053444-FFFFFF" transform="translate(83.000000, 30.000000)">
            <path d="M14.9573864,0 C13.1740364,0 11.5752068,1.08570239 10.9303977,2.76014727 C10.9208097,2.78186131 10.8992367,2.79633776 10.8920455,2.8180518 L8.89772727,7.41181194 L4.29545455,7.41181194 C1.93675909,7.41181194 0,9.36123389 0,11.7353509 C0,14.1094679 1.93675909,16.0588898 4.29545455,16.0588898 L4.37215909,16.0588898 C3.18563182,17.3858457 2.45454545,19.1350878 2.45454545,21.0580126 L2.45454545,33.3529221 C2.45454545,34.0357324 3.00346159,34.5882189 3.68181818,34.5882189 L7.36363636,34.5882189 L7.36363636,40.7647032 C7.36363636,41.4475135 7.9125525,42 8.59090909,42 L15.9545455,42 C16.6329205,42 17.1818182,41.447495 17.1818182,40.7647032 L17.1818182,34.5882189 L36.8181818,34.5882189 L36.8181818,40.7647032 C36.8181818,41.4475135 37.367098,42 38.0454545,42 L45.4090909,42 C46.0874659,42 46.6363636,41.447495 46.6363636,40.7647032 L46.6363636,34.5882189 L50.3181818,34.5882189 C50.9965568,34.5882189 51.5454545,34.0357139 51.5454545,33.3529221 L51.5454545,21.0580126 C51.5454545,19.1350878 50.8143682,17.3859075 49.6278409,16.0588898 L49.7045455,16.0588898 C52.0632409,16.0588898 54,14.1094679 54,11.7353509 C54,9.36123389 52.0632409,7.41181194 49.7045455,7.41181194 L45.1022727,7.41181194 L43.1079545,2.8180518 C43.1007633,2.79633776 43.0791903,2.78186131 43.0696023,2.76014727 C42.4247932,1.08576416 40.826025,0 39.0426136,0 L14.9573864,0 Z M14.9573864,2.47059369 L39.0426136,2.47059369 C39.6274827,2.47059369 40.6150568,3.16303933 40.8068182,3.6866199 C40.8116119,3.70592141 40.8188031,3.72522292 40.8259943,3.74452444 L45.1214489,13.6651934 C44.8050457,13.6217653 44.4910602,13.5879873 44.162642,13.5879873 L9.83705114,13.5879873 C9.5086575,13.5879873 9.19463523,13.6217653 8.87824432,13.6651934 L13.1736989,3.74452444 C13.1808901,3.72522292 13.1880813,3.70592141 13.192875,3.6866199 C13.3846364,3.16306404 14.3722227,2.47059369 14.9570795,2.47059369 L14.9573864,2.47059369 Z M4.29545455,9.88237474 L7.82386364,9.88237474 L6.21306818,13.5882653 L4.29545455,13.5882653 C3.25515682,13.5882653 2.45454545,12.7824194 2.45454545,11.73532 C2.45454545,10.6882206 3.25515682,9.88237474 4.29545455,9.88237474 Z M46.1761364,9.88237474 L49.7045455,9.88237474 C50.7448432,9.88237474 51.5454545,10.6882206 51.5454545,11.73532 C51.5454545,12.7824194 50.7448432,13.5882653 49.7045455,13.5882653 L47.7869318,13.5882653 L46.1761364,9.88237474 Z M9.83720455,16.058859 L44.1627955,16.058859 C46.9025591,16.058859 49.0910318,18.2592315 49.0910318,21.0579817 L49.0910318,32.1175944 L4.90921364,32.1175944 L4.90921364,21.0579817 C4.90921364,18.2592932 7.09768636,16.058859 9.83745,16.058859 L9.83720455,16.058859 Z M8.47566818,21.0000463 C7.84288636,21.0603634 7.36105909,21.5959782 7.3634434,22.2353432 L7.3634434,28.4118274 C7.3634434,29.0946377 7.91236841,29.6471242 8.590725,29.6471242 L13.6340795,29.6471242 C15.949575,29.6471242 17.7952705,27.6687346 17.7952705,25.3235853 C17.7952705,22.978436 15.949575,21.0000463 13.6340795,21.0000463 L8.590725,21.0000463 C8.55237273,20.9976338 8.51402045,20.9976338 8.47566818,21.0000463 Z M40.3657364,21.0000463 C38.0502409,21.0000463 36.2045455,22.978436 36.2045455,25.3235853 C36.2045455,27.6687346 38.0502409,29.6471242 40.3657364,29.6471242 L45.4090909,29.6471242 C46.0874659,29.6471242 46.6363636,29.0946192 46.6363636,28.4118274 L46.6363636,22.2353432 C46.6363636,21.5525328 46.0874475,21.0000463 45.4090909,21.0000463 L40.3657364,21.0000463 Z M9.81830455,23.47064 L13.6343864,23.47064 C14.5715932,23.47064 15.3410318,24.2475182 15.3410318,25.3235853 C15.3410318,26.3996524 14.5715932,27.1765305 13.6343864,27.1765305 L9.81830455,27.1765305 L9.81830455,23.47064 Z M40.3657364,23.47064 L44.1818182,23.47064 L44.1818182,27.1765305 L40.3657364,27.1765305 C39.4285295,27.1765305 38.6590909,26.3996524 38.6590909,25.3235853 C38.6590909,24.2475182 39.4285295,23.47064 40.3657364,23.47064 Z M9.81830455,34.5883116 L14.7273955,34.5883116 L14.7273955,39.529499 L9.81830455,39.529499 L9.81830455,34.5883116 Z M39.27285,34.5883116 L44.1819409,34.5883116 L44.1819409,39.529499 L39.27285,39.529499 L39.27285,34.5883116 Z" id="Shape"></path>
          </g>
        </g>
      </g>
    </g>
  </g>
</svg>
