<?xml version="1.0" encoding="UTF-8"?>
<svg xmlns="http://www.w3.org/2000/svg" xmlns:xlink="http://www.w3.org/1999/xlink" width="50px" height="50px" viewBox="0 0 50 50" version="1.1">
  <title>noun-steering-wheel-5396867-FFFFFF</title>
  <defs>
    <linearGradient x1="75.2253338%" y1="90.3367967%" x2="27.3906638%" y2="13.0447417%" id="linearGradient-1">
      <stop stop-color="#CE43FF" offset="0%"></stop>
      <stop stop-color="#4280FF" offset="51.4675754%"></stop>
      <stop stop-color="#70ED9B" offset="100%"></stop>
    </linearGradient>
  </defs>
  <g id="Homepage" stroke="none" stroke-width="1" fill="none" fill-rule="evenodd">
    <g id="Home-ALT---Desktop" transform="translate(-1178.000000, -4461.000000)" fill="url(#linearGradient-1)" fill-rule="nonzero">
      <g id="Who-Needs-Short-Term" transform="translate(0.000000, 3964.000000)">
        <g id="Small-Card-Copy-20" transform="translate(1093.000000, 471.000000)">
          <g id="noun-steering-wheel-5396867-FFFFFF" transform="translate(85.000000, 26.000000)">
            <path d="M18.092263,0.968949882 C25.0240663,-1.0192498 32.473988,0.0831022321 38.5317526,3.99192659 C44.5900257,7.90303905 48.6633817,14.2390209 49.7061267,21.3732927 C49.7159771,21.4229865 49.7239217,21.4746262 49.7278938,21.5262659 C49.9006931,22.6762611 49.9900693,23.8361714 50,25.0000985 C49.987797,30.8652418 47.9184252,36.5397616 44.1486692,41.0325071 C40.3809979,45.5270831 35.1535447,48.5540767 29.3815332,49.5848877 C29.3219522,49.6027638 29.264349,49.6146807 29.2027799,49.6206394 L29.1789459,49.6206394 C27.7985342,49.8649415 26.4022586,49.9900692 25.0000341,50 C23.5997417,49.9920527 22.2014831,49.8669246 20.8211222,49.6265935 L20.7972883,49.6265935 C20.7357191,49.6186487 20.678121,49.6067313 20.6185349,49.5908418 C11.9747546,48.0339221 4.77672282,42.0635266 1.65052171,33.8563937 C1.63860499,33.8325594 1.61675707,33.8186559 1.60483984,33.7928356 C1.57703229,33.7193471 1.55717041,33.6438706 1.54525369,33.5683941 C0.530321344,30.8252256 0.00595861537,27.9234161 0,24.9997426 C0.00198298489,23.8398323 0.0834175644,22.6798712 0.242310585,21.529876 C0.246282656,21.50008 0.270116609,21.4782333 0.270116609,21.4484403 C0.284019875,21.4027547 0.299909177,21.3550876 0.319771059,21.3094056 C0.351549663,21.2001619 0.399217569,21.0948944 0.460786708,20.9955861 C0.486606188,20.9638071 0.514411704,20.93203 0.544204272,20.902237 C0.619679728,20.8088829 0.707068347,20.7254641 0.808363283,20.6559468 C0.820280005,20.648002 0.82623862,20.6261543 0.840141887,20.6261543 C1.34656572,20.311923 13.3949785,12.9254525 25.0000163,12.9254525 C33.6219329,12.9254525 42.4823161,17.0013585 46.6770919,19.2278757 C45.0942632,13.2534124 41.1160904,8.19667756 35.6816949,5.24915705 C30.2493332,2.30361955 23.8422582,1.72763045 17.9710975,3.66020406 C12.0999369,5.5908455 7.28545293,9.8568665 4.66170969,15.4540488 C4.3379747,16.0439495 3.61301576,16.2783213 3.00525631,15.9923098 C2.39749382,15.7043152 2.11744347,14.9952608 2.36770125,14.3715777 C5.43065022,7.84339611 11.1624935,2.95913257 18.092263,0.968949882 Z M24.9960147,15.4662067 C15.2382037,15.4662067 5.06905038,21.0870325 2.69557,22.4753961 C2.59825121,23.3135497 2.54859472,24.1556694 2.54263611,24.9998229 C2.54461909,27.1986796 2.86835409,29.3835027 3.50590915,31.4888527 C5.59714468,30.5155999 7.7521408,29.6873614 9.95874537,29.010086 C12.7908546,28.1321704 15.8734808,28.6525843 18.2608421,30.4103477 C20.6501864,32.1681111 22.062367,34.9565329 22.0683256,37.9219005 L22.0683256,47.2430801 C23.0395306,47.3781437 24.0187184,47.4496465 24.9998892,47.4575913 C25.9850259,47.445678 26.9701626,47.3702014 27.9453844,47.2311668 L27.9453844,37.9099872 C27.9513334,34.9427891 29.3655067,32.1541639 31.7548509,30.3964005 C34.1461273,28.6386168 37.2307874,28.1202063 40.0630492,29.0001049 C40.7761102,29.2126397 41.5049842,29.4529707 42.2537899,29.7211046 C42.573564,29.8323568 42.837723,30.0687116 42.9827148,30.3745838 C43.1296926,30.6804763 43.1475649,31.0320239 43.0323687,31.3518026 C42.9191352,31.6715915 42.6808058,31.9317831 42.37295,32.0747889 C42.0670618,32.2177927 41.7135312,32.2336822 41.3957452,32.1145133 C40.6926499,31.8662552 40.0014526,31.6398307 39.324187,31.4372379 C37.242663,30.7838096 34.9744842,31.1691244 33.222695,32.4720658 C31.4907865,33.7431774 30.4718724,35.7670713 30.4818031,37.9141663 L30.479,46.753 L30.9250459,46.6383456 C35.8679658,45.3091984 40.2033036,42.3227861 43.2078755,38.1788965 L43.4773322,37.7990045 C46.5757207,33.330106 47.9382347,27.8839379 47.3066286,22.4814977 C44.9570457,21.1010153 34.7558596,15.4681927 24.9960147,15.4662067 Z M16.783493,32.4782182 C15.0375002,31.1772445 12.7732365,30.791945 10.6957293,31.4414073 C8.5367164,32.1048016 6.42539679,32.919159 4.37966823,33.8784799 C7.16067742,40.2856977 12.7537117,45.0427941 19.5264144,46.7548973 L19.5264144,37.9142171 C19.5343506,35.7693594 18.5154014,33.7473976 16.783493,32.4782182 Z M25.5004104,19 C28.5361796,19.0034519 30.9961429,21.4615856 31,24.4973669 C31.0019191,26.7224 29.66105,28.7296194 27.6057574,29.5810011 C25.5504649,30.4323829 23.1848837,29.9623847 21.6110514,28.3886228 C20.0391277,26.8169322 19.5671506,24.4515062 20.4186198,22.3961577 C21.2702369,20.3408585 23.2755736,19.0001479 25.500509,19.0001479 Z M26.6601463,21.6951793 C25.5274349,21.2270549 24.2213819,21.4871295 23.3545265,22.3558693 C22.4857528,23.2226859 22.2276244,24.5286803 22.6976535,25.6613411 C23.1676728,26.795925 24.273409,27.5336906 25.500509,27.5336906 C27.1764229,27.5317674 28.5325767,26.1737481 28.5345029,24.4979093 C28.5345029,23.2708643 27.794781,22.1651874 26.6601463,21.6951793 Z" id="Combined-Shape"></path>
          </g>
        </g>
      </g>
    </g>
  </g>
</svg>
