<?xml version="1.0" encoding="UTF-8"?>
<svg xmlns="http://www.w3.org/2000/svg" xmlns:xlink="http://www.w3.org/1999/xlink" width="40px" height="43px" viewBox="0 0 40 43" version="1.1">
  <title>noun-calander-3545812-FFFFFF</title>
  <defs>
    <linearGradient x1="79.7508812%" y1="93.5694096%" x2="18.8235035%" y2="11.6382867%" id="linearGradient-1">
      <stop stop-color="#CE43FF" offset="0%"></stop>
      <stop stop-color="#4280FF" offset="51.4675754%"></stop>
      <stop stop-color="#70ED9B" offset="100%"></stop>
    </linearGradient>
  </defs>
  <g id="Homepage" stroke="none" stroke-width="1" fill="none" fill-rule="evenodd">
    <g id="Home-ALT---Desktop" transform="translate(-572.000000, -2679.000000)" fill="url(#linearGradient-1)" fill-rule="nonzero">
      <g id="Who-Needs-Short-Term-Copy" transform="translate(361.000000, 2318.000000)">
        <g id="Small-Card-Copy-8" transform="translate(121.000000, 332.000000)">
          <g id="noun-calander-3545812-FFFFFF" transform="translate(90.000000, 29.000000)">
            <path d="M20.4350431,24.5714286 C25.4695671,24.5714286 29.5652174,28.7044736 29.5652174,33.7857373 C29.5652174,38.8627427 25.4753075,42.9922627 20.4443651,42.9980654 C20.4405323,42.9980654 20.4386154,43 20.4347826,43 C15.3942086,42.9945994 11.3043478,38.8630398 11.3043478,33.7857373 C11.3043478,28.7048202 15.3996546,24.5714286 20.4345221,24.5714286 Z M39.0374527,41.244898 C39.5694863,41.244898 40,41.6373827 40,42.122449 C40,42.6075021 39.5695007,43 39.0374527,43 L27.919069,43 C27.3870355,43 26.9565217,42.6075153 26.9565217,42.122449 C26.9565217,41.6373958 27.387021,41.244898 27.919069,41.244898 Z M12.9504962,41.244898 C13.4825298,41.244898 13.9130435,41.6373827 13.9130435,42.122449 C13.9130435,42.6075021 13.4825442,43 12.9504962,43 L1.8321125,43 C1.30007893,43 0.869565217,42.6075153 0.869565217,42.122449 C0.869565217,41.6373958 1.30006449,41.244898 1.8321125,41.244898 Z M21.4157864,26.6292859 C21.4157864,27.1863339 20.9769012,27.6292635 20.4345221,27.6292635 C19.8921429,27.6292635 19.4532577,27.1863488 19.4532577,26.6389567 C16.2872083,27.0684869 13.780382,29.6001565 13.3434152,32.7954306 C13.8953769,32.7954306 14.3342621,33.2383453 14.3342621,33.7857373 C14.3342621,34.3331145 13.8953916,34.776044 13.3529977,34.776044 C13.7786059,37.9712686 16.2871592,40.5011903 19.4532577,40.9421887 L19.4532577,40.9325174 C19.4532577,40.3851402 19.8921429,39.9422107 20.4345221,39.9422107 C20.9769012,39.9422107 21.4157864,40.3851253 21.4157864,40.9325174 L21.4157864,40.9421887 C24.5818359,40.5010071 27.0905756,37.9713181 27.525629,34.776044 C26.9736673,34.776044 26.5347821,34.3331293 26.5347821,33.7857373 C26.5347821,33.2383601 26.9736526,32.7954306 27.5160465,32.7954306 C27.0904383,29.600206 24.581885,27.0702794 21.4157864,26.6292859 Z M32.2785078,0 C32.8114892,0 33.2427698,0.435984301 33.2427698,0.974811181 L33.2427698,2.87491314 L33.5607034,2.87491314 C37.1109716,2.87491314 39.9981168,5.793839 39.9981168,9.38275258 L40,38.5149847 C40,39.053797 39.5687338,39.4897959 39.035738,39.4897959 L30.270596,39.4897959 C29.7376147,39.4897959 29.306334,39.053797 29.306334,38.5149847 C29.306334,37.9761725 29.7376002,37.5401736 30.270596,37.5401736 L38.0695474,37.5401736 L38.0695474,12.0980891 L1.92852408,12.0980891 L1.92852408,37.5401736 L9.72940397,37.5401736 C10.2623853,37.5401736 10.693666,37.9761725 10.693666,38.5149847 C10.693666,39.053797 10.2623998,39.4897959 9.72940397,39.4897959 L0.964262038,39.4897959 C0.431280661,39.4897959 0,39.0538116 0,38.5149847 L0,9.38275258 C0,5.79364403 2.88733803,2.87491314 6.43741337,2.87491314 L6.75569698,2.87491314 L6.75569698,0.974811181 C6.75569698,0.435998923 7.18697764,0 7.71995902,0 C8.2529404,0 8.68422106,0.435984301 8.68422106,0.974811181 L8.68422106,2.87491314 L11.6674067,2.87491314 L11.6674067,0.974811181 C11.6674067,0.435998923 12.0986874,0 12.6316688,0 C13.1646502,0 13.5959308,0.435984301 13.5959308,0.974811181 L13.5959308,2.87491314 L16.5791165,2.87491314 L16.5791165,0.974811181 C16.5791165,0.435998923 17.0103972,0 17.5433785,0 C18.0763599,0 18.5076406,0.435984301 18.5076406,0.974811181 L18.5076406,2.87491314 L21.4908263,2.87491314 L21.4908263,0.974811181 C21.4908263,0.435998923 21.9221069,0 22.4550883,0 C22.9880697,0 23.4193503,0.435984301 23.4193503,0.974811181 L23.4193503,2.87491314 L26.402536,2.87491314 L26.402536,0.974811181 C26.402536,0.435998923 26.8338167,0 27.366798,0 C27.8997794,0 28.3310601,0.435984301 28.3310601,0.974811181 L28.3310601,2.87491314 L31.3142458,2.87491314 L31.3142458,0.974811181 C31.3142458,0.435998923 31.7455264,0 32.2785078,0 Z M24.1331102,31.0707722 C24.4661944,31.4826076 24.4047861,32.0927584 23.9972699,32.4309025 L21.0367547,34.8829092 C21.0330334,34.8866871 21.0274508,34.888576 21.0237295,34.8923544 C21.0107037,34.9036886 20.9958173,34.9112449 20.9827916,34.9206901 C20.9418528,34.9490263 20.9009158,34.9735845 20.8581173,34.9962529 C20.8395081,35.0056986 20.8208998,35.0151438 20.802292,35.0227001 C20.7594906,35.0415906 20.7166939,35.0567031 20.6720347,35.0680378 C20.6552852,35.0718157 20.6366774,35.077483 20.6199298,35.0812614 C20.5585264,35.094485 20.4971181,35.1020408 20.433852,35.1020408 C20.3724485,35.1020408 20.3091825,35.094485 20.2477742,35.0812614 C20.229164,35.077483 20.2124165,35.0737051 20.1956694,35.0680378 C20.1510101,35.0548142 20.1082101,35.0397016 20.065412,35.0227001 C20.044945,35.0132549 20.0263372,35.0056986 20.007729,34.9962529 C19.9667901,34.9754774 19.9277144,34.9509167 19.8886376,34.922581 L19.8421177,34.8904664 C19.8383959,34.8885775 19.8346745,34.8866885 19.8309527,34.8829106 L16.8722954,32.430904 C16.4647791,32.0927695 16.4033709,31.4844806 16.736455,31.0707737 C17.0695296,30.6570668 17.6687162,30.5947256 18.0762325,30.9328698 L20.4320018,32.8861861 L22.7896171,30.9328683 C23.1952422,30.5947242 23.7963056,30.6551744 24.1331102,31.0707722 Z M10.3706534,25.4489796 C10.886739,25.4489796 11.3043478,25.8414643 11.3043478,26.3265306 C11.3043478,26.8115838 10.886753,27.2040816 10.3706534,27.2040816 L7.02065099,27.2040816 C6.50639075,27.2040816 6.08695652,26.8115969 6.08695652,26.3265306 C6.08695652,25.8414774 6.50455137,25.4489796 7.02065099,25.4489796 L10.3706534,25.4489796 Z M33.8489142,25.4489796 C34.3649998,25.4489796 34.7826087,25.8414643 34.7826087,26.3265306 C34.7826087,26.8115838 34.3650138,27.2040816 33.8489142,27.2040816 L30.4989119,27.2040816 C29.9828262,27.2040816 29.5652174,26.8115969 29.5652174,26.3265306 C29.5652174,25.8414774 29.9828122,25.4489796 30.4989119,25.4489796 L33.8489142,25.4489796 Z M26.0228273,20.1836735 C26.5389129,20.1836735 26.9565217,20.5761713 26.9565217,21.0612245 C26.9565217,21.5462777 26.5389269,21.9387755 26.0228273,21.9387755 L22.6728249,21.9387755 C22.1567393,21.9387755 21.7391304,21.5445796 21.7391304,21.0612245 C21.7391304,20.5761713 22.1567253,20.1836735 22.6728249,20.1836735 L26.0228273,20.1836735 Z M33.8489142,20.1836735 C34.3649998,20.1836735 34.7826087,20.5761713 34.7826087,21.0612245 C34.7826087,21.5462777 34.3650138,21.9387755 33.8489142,21.9387755 L30.4989119,21.9387755 C29.9828262,21.9387755 29.5652174,21.5445796 29.5652174,21.0612245 C29.5652174,20.5761713 29.9828122,20.1836735 30.4989119,20.1836735 L33.8489142,20.1836735 Z M10.3706534,20.1836735 C10.886739,20.1836735 11.3043478,20.5761713 11.3043478,21.0612245 C11.3043478,21.5462777 10.886753,21.9387755 10.3706534,21.9387755 L7.02065099,21.9387755 C6.50639075,21.9387755 6.08695652,21.5445796 6.08695652,21.0612245 C6.08695652,20.5761713 6.50455137,20.1836735 7.02065099,20.1836735 L10.3706534,20.1836735 Z M18.1967403,20.1836735 C18.7128259,20.1836735 19.1304348,20.5761713 19.1304348,21.0612245 C19.1304348,21.5462777 18.7128399,21.9387755 18.1967403,21.9387755 L14.8467379,21.9387755 C14.3324777,21.9387755 13.9130435,21.5445796 13.9130435,21.0612245 C13.9130435,20.5761713 14.3306383,20.1836735 14.8467379,20.1836735 L18.1967403,20.1836735 Z M10.3706534,14.9183673 C10.886739,14.9183673 11.3043478,15.3108652 11.3043478,15.7959184 C11.3043478,16.2809715 10.886753,16.6734694 10.3706534,16.6734694 L7.02065099,16.6734694 C6.50639075,16.6734694 6.08695652,16.2809715 6.08695652,15.7959184 C6.08695652,15.3108652 6.50455137,14.9183673 7.02065099,14.9183673 L10.3706534,14.9183673 Z M18.1967403,14.9183673 C18.7128259,14.9183673 19.1304348,15.3108652 19.1304348,15.7959184 C19.1304348,16.2809715 18.7128399,16.6734694 18.1967403,16.6734694 L14.8467379,16.6734694 C14.3324777,16.6734694 13.9130435,16.2809715 13.9130435,15.7959184 C13.9130435,15.3108652 14.3306383,14.9183673 14.8467379,14.9183673 L18.1967403,14.9183673 Z M26.0228273,14.9183673 C26.5389129,14.9183673 26.9565217,15.3108652 26.9565217,15.7959184 C26.9565217,16.2809715 26.5389269,16.6734694 26.0228273,16.6734694 L22.6728249,16.6734694 C22.1567393,16.6734694 21.7391304,16.2809715 21.7391304,15.7959184 C21.7391304,15.3108652 22.1567253,14.9183673 22.6728249,14.9183673 L26.0228273,14.9183673 Z M33.8489142,14.9183673 C34.3649998,14.9183673 34.7826087,15.3108652 34.7826087,15.7959184 C34.7826087,16.2809715 34.3650138,16.6734694 33.8489142,16.6734694 L30.4989119,16.6734694 C29.9828262,16.6734694 29.5652174,16.2809715 29.5652174,15.7959184 C29.5652174,15.3108652 29.9828122,14.9183673 30.4989119,14.9183673 L33.8489142,14.9183673 Z M6.75570662,4.82458424 L6.43742301,4.82458424 C3.95141084,4.82458424 1.92872657,6.86944565 1.92872657,9.38260636 L1.92872657,10.1479794 L38.0697595,10.1479794 L38.0697595,9.38260636 C38.0697595,6.86939691 36.0470271,4.82458424 33.5610631,4.82458424 L33.2427795,4.82458424 L33.2427795,6.72468619 C33.2427795,7.26349845 32.8114988,7.69949738 32.2785174,7.69949738 C31.7455361,7.69949738 31.3142554,7.26351307 31.3142554,6.72468619 L31.3142554,4.82458424 L28.3310697,4.82458424 L28.3310697,6.72468619 C28.3310697,7.26349845 27.8997891,7.69949738 27.3668077,7.69949738 C26.8338263,7.69949738 26.4025457,7.26351307 26.4025457,6.72468619 L26.4025457,4.82458424 L23.41936,4.82458424 L23.41936,6.72468619 C23.41936,7.26349845 22.9880793,7.69949738 22.4550979,7.69949738 C21.9221166,7.69949738 21.4908359,7.26351307 21.4908359,6.72468619 L21.4908359,4.82458424 L18.5076502,4.82458424 L18.5076502,6.72468619 C18.5076502,7.26349845 18.0763696,7.69949738 17.5433882,7.69949738 C17.0104068,7.69949738 16.5791261,7.26351307 16.5791261,6.72468619 L16.5791261,4.82458424 L13.5959405,4.82458424 L13.5959405,6.72468619 C13.5959405,7.26349845 13.1646598,7.69949738 12.6316784,7.69949738 C12.098697,7.69949738 11.6674164,7.26351307 11.6674164,6.72468619 L11.6674164,4.82458424 L8.6842307,4.82458424 L8.6842307,6.72468619 C8.6842307,7.26349845 8.25295004,7.69949738 7.71996866,7.69949738 C7.18698728,7.69949738 6.75570662,7.26351307 6.75570662,6.72468619 L6.75570662,4.82458424 Z" id="Combined-Shape"></path>
          </g>
        </g>
      </g>
    </g>
  </g>
</svg>
