<?xml version="1.0" encoding="UTF-8"?>
<svg xmlns="http://www.w3.org/2000/svg" xmlns:xlink="http://www.w3.org/1999/xlink" width="64px" height="42px" viewBox="0 0 64 42" version="1.1">
  <title>noun-van-1061974-FFFFFF</title>
  <defs>
    <linearGradient x1="69.7865773%" y1="59.7718052%" x2="12.3931933%" y2="28.4667969%" id="linearGradient-1">
      <stop stop-color="#CE43FF" offset="0%"></stop>
      <stop stop-color="#4280FF" offset="51.4675754%"></stop>
      <stop stop-color="#68D9AC" offset="91.3691572%"></stop>
      <stop stop-color="#70ED9B" offset="100%"></stop>
    </linearGradient>
  </defs>
  <g id="Homepage" stroke="none" stroke-width="1" fill="none" fill-rule="evenodd">
    <g id="Home-ALT---Desktop" transform="translate(-683.000000, -2459.000000)" fill="url(#linearGradient-1)" fill-rule="nonzero">
      <g id="Who-Needs-Short-Term-Copy" transform="translate(361.000000, 2318.000000)">
        <g id="Small-Card-Copy-4" transform="translate(244.000000, 111.000000)">
          <g id="noun-van-1061974-FFFFFF" transform="translate(78.000000, 30.000000)">
            <path d="M46.4769281,0 C45.9655577,0.022707629 45.5025082,0.311076606 45.2581396,0.763424498 C45.0166582,1.21293531 45.0308622,1.75575133 45.2950719,2.19397896 L53.2952356,15.9451349 C53.411718,16.1458583 53.5764922,16.3183123 53.7725181,16.4427096 L56.4543911,18.1390232 C55.7668789,18.269073 55.2725488,18.8684135 55.2725488,19.5639325 L55.2725488,24.6301478 C55.2725488,25.430248 55.9231293,26.0776379 56.727124,26.0776379 L61.0908496,26.0776379 L61.0908496,30.3522209 C61.0908496,31.220136 60.440269,31.8675983 59.5680548,31.8675983 L58.04526,31.8675983 C57.3463803,27.7739515 53.7582632,24.6301478 49.4545388,24.6301478 C45.1508144,24.6301478 41.5620138,27.7739515 40.8638177,31.8675983 L23.1361823,31.8675983 C22.4373026,27.7739515 18.8491856,24.6301478 14.5454612,24.6301478 C10.2417368,24.6301478 6.65293608,27.7739515 5.95473998,31.8675983 L4.4319452,31.8675983 C3.5597819,31.8675983 2.90915041,31.2201866 2.90915041,30.3522209 L2.90915041,4.43346326 C2.90915041,3.5655482 3.55973099,2.91808588 4.4319452,2.91808588 L40.7279603,2.91808588 C41.1171756,2.92373978 41.4921942,2.77390139 41.7705999,2.502497 C42.0461764,2.22826276 42.2024269,1.85791518 42.2024269,1.47058131 C42.2024269,1.08324743 42.0461764,0.712892619 41.7705999,0.43866562 C41.4921869,0.167261227 41.1171756,0.0174242901 40.7279603,0.023076739 L4.4319452,0.023076739 C2.00295006,0.023076739 0,2.01619823 0,4.43343431 L0,30.352192 C0,32.7693557 2.00287733,34.7625495 4.4319452,34.7625495 L5.95473998,34.7625495 C6.65361973,38.8561963 10.2417368,42 14.5454612,42 C18.8491856,42 22.4379862,38.8561963 23.1361823,34.7625495 L40.8638177,34.7625495 C41.5626974,38.8561963 45.1508144,42 49.4545388,42 C53.7582632,42 57.3470639,38.8561963 58.04526,34.7625495 L59.5680548,34.7625495 C61.9970499,34.7625495 64,32.769428 64,30.352192 L64,20.2877933 C63.9971592,19.7902186 63.7414711,19.3294101 63.3181679,19.0664736 L55.613283,14.1811945 L47.7949413,0.74703891 C47.5307322,0.272081223 47.0221982,-0.0162949916 46.4767325,0.00071301699 L46.4769281,0 Z M7.13503249,5.08888677 C6.38505351,5.15956482 5.81398729,5.78718495 5.81681319,6.53637687 L5.81681319,15.2213174 C5.81681319,16.0214176 6.46740429,16.6688075 7.27139891,16.6688075 L25.453589,16.6688075 C26.2576055,16.6688075 26.9081642,16.0213959 26.9081642,15.2213174 L26.9081642,6.53637687 C26.9081642,5.73627672 26.2575836,5.08888677 25.453589,5.08888677 L7.27139891,5.08888677 C7.22594344,5.08605983 7.18048796,5.08605983 7.13503249,5.08888677 Z M31.1355234,5.08888677 C30.3855444,5.15956482 29.8144782,5.78718495 29.8173041,6.53637687 L29.8173041,15.2213174 C29.8173041,16.0214176 30.4678952,16.6688075 31.2718898,16.6688075 L47.9995047,16.6688075 C48.5165626,16.6659806 48.9938523,16.3889209 49.2524031,15.9422399 C49.5080883,15.4927291 49.5080883,14.9442678 49.2495623,14.4975724 L44.1585491,5.81263182 C43.9000201,5.36877346 43.4255886,5.09171662 42.9084871,5.08888677 L31.2718855,5.08888677 C31.22643,5.08605983 31.1809745,5.08605983 31.135519,5.08888677 L31.1355234,5.08888677 Z M8.72633777,7.98386697 L23.9993774,7.98386697 L23.9993774,13.7738273 L8.72633777,13.7738273 L8.72633777,7.98386697 Z M32.7268287,7.98386697 L42.0906566,7.98386697 L45.4770531,13.7738273 L32.7269741,13.7738273 L32.7268287,7.98386697 Z M58.1818948,21.0112778 L60.9774429,21.0112778 L61.0910816,21.0791289 L61.0910816,23.1824768 L58.1819312,23.1824768 L58.1818948,21.0112778 Z M14.5446386,27.5249832 C17.7748138,27.5249832 20.3629394,30.1005024 20.3629394,33.3149436 C20.3629394,36.5293849 17.7748138,39.104904 14.5446386,39.104904 C11.3144634,39.104904 8.72633777,36.5293849 8.72633777,33.3149436 C8.72633777,30.1005024 11.3144634,27.5249832 14.5446386,27.5249832 Z M49.4544436,27.5249832 C52.6846187,27.5249832 55.2727444,30.1005024 55.2727444,33.3149436 C55.2727444,36.5293849 52.6846187,39.104904 49.4544436,39.104904 C46.2242684,39.104904 43.6361427,36.5293849 43.6361427,33.3149436 C43.6361427,30.1005024 46.2242684,27.5249832 49.4544436,27.5249832 Z M14.5446386,31.1437085 C13.3401049,31.1437085 12.3627758,32.1162771 12.3627758,33.3149436 C12.3627758,34.5136102 13.3401049,35.4861788 14.5446386,35.4861788 C15.7491723,35.4861788 16.7265014,34.5136102 16.7265014,33.3149436 C16.7265014,32.1162771 15.7491723,31.1437085 14.5446386,31.1437085 Z M49.4544436,31.1437085 C48.2499098,31.1437085 47.2725808,32.1162771 47.2725808,33.3149436 C47.2725808,34.5136102 48.2499098,35.4861788 49.4544436,35.4861788 C50.6589773,35.4861788 51.6363064,34.5136102 51.6363064,33.3149436 C51.6363064,32.1162771 50.6589773,31.1437085 49.4544436,31.1437085 Z" id="Shape"></path>
          </g>
        </g>
      </g>
    </g>
  </g>
</svg>
