<?xml version="1.0" encoding="UTF-8"?>
<svg xmlns="http://www.w3.org/2000/svg" xmlns:xlink="http://www.w3.org/1999/xlink" width="38px" height="43px" viewBox="0 0 38 43" version="1.1">
  <title>Combined Shape</title>
  <defs>
    <linearGradient x1="65.4525785%" y1="72.6900873%" x2="32.5109641%" y2="19.5761771%" id="linearGradient-1">
      <stop stop-color="#CE43FF" offset="0%"></stop>
      <stop stop-color="#4280FF" offset="51.4675754%"></stop>
      <stop stop-color="#70ED9B" offset="100%"></stop>
    </linearGradient>
  </defs>
  <g id="Homepage" stroke="none" stroke-width="1" fill="none" fill-rule="evenodd">
    <g id="Home-ALT---Desktop" transform="translate(-1185.000000, -4244.000000)" fill="url(#linearGradient-1)" fill-rule="nonzero">
      <g id="Who-Needs-Short-Term" transform="translate(0.000000, 3964.000000)">
        <g id="Small-Card-Copy-3" transform="translate(1094.000000, 251.000000)">
          <path d="M128.698803,69.5887329 L125.894881,63.8287636 C125.648445,63.3206383 125.142776,63 124.589656,63 L95.3821424,63 C94.8290222,63 94.3233817,63.3206239 94.0750945,63.8287636 L91.1543431,69.8287316 C90.9279825,70.2937291 90.9517177,70.8449822 91.2182351,71.2874918 C91.4865797,71.7318638 91.9538906,72 92.4614004,72 L127.510417,72 L127.539624,72 C128.346499,72 129,71.3287716 129,70.5 C129,70.1568866 128.88682,69.8418835 128.698798,69.5887809 L128.698803,69.5887329 Z M94.8236947,68.999968 L96.2840704,65.999984 L123.686326,65.999984 L125.146702,68.999968 L94.8236947,68.999968 Z M109.5,40 C114.187376,40 118,43.9470933 118,48.8 L118,60.5333333 C118,61.3436843 117.366059,62 116.583333,62 L102.416667,62 C101.633941,62 101,61.3436843 101,60.5333333 L101,48.8 C101,43.9471872 104.812533,40 109.5,40 Z M109.5,42.9333333 C106.374493,42.9333333 103.833333,45.5641813 103.833333,48.8 L103.833333,59.0666667 L115.166667,59.0666667 L115.166667,48.8 C115.166667,45.5641813 112.625507,42.9333333 109.5,42.9333333 Z M99.9286492,51.8930872 C100.17795,52.5718499 99.7532311,53.2990113 98.9777237,53.5166694 L93.9387687,54.9387071 C93.7910507,54.9774029 93.6377927,55 93.4845348,55 C92.6684415,55 92,54.4228144 92,53.7117749 C92,53.1023125 92.4800715,52.5896063 93.1300306,52.4557854 L98.0692464,51.0627638 C98.8521752,50.8434713 99.6775286,51.217544 99.9286492,51.8930872 Z M120.072274,51.8936758 C120.323645,51.2166416 121.151615,50.8426573 121.93336,51.063503 L126.973204,52.4820391 C127.749409,52.7012918 128.176328,53.4282965 127.930526,54.106936 C127.727224,54.6518078 127.146888,55 126.522221,55 C126.370669,55 126.219123,54.9806539 126.067576,54.9387429 L121.02406,53.5169633 C120.246001,53.2993199 119.820926,52.5723153 120.072274,51.8936758 Z M93.3708681,41 C93.5155292,41 93.6705289,41.025146 93.8065796,41.0735023 L99.0490677,42.9826118 C99.7741059,43.2495553 100.168485,44.123819 99.930825,44.9342559 C99.7413795,45.5860716 99.2023171,46 98.6219445,46 C98.4790028,46 98.3343373,45.9748555 98.1931195,45.9226304 L92.9971353,44.0328869 C92.4236579,43.8452688 92,43.2514667 92,42.5473913 C92,41.692439 92.609647,41 93.3708681,41 Z M126.934227,42.0731643 C127.165218,42.8875359 126.768761,43.7580394 126.043136,44.0211193 L120.808664,45.9226236 C120.665604,45.9748528 120.520819,46 120.379484,46 C119.798587,46 119.259118,45.5879859 119.06952,44.9341612 C118.831363,44.1217458 119.2261,43.2493159 119.951725,42.9823684 L125.198552,41.0730893 C125.924177,40.8157786 126.703263,41.2587928 126.934227,42.0731643 Z M100.489875,33.6269237 L103.736448,38.5741132 C104.183765,39.2573873 104.047844,40.2117429 103.433641,40.7079766 C103.189326,40.9045693 102.905467,41 102.625026,41 C102.198366,41 101.778568,40.7823921 101.510169,40.3720367 L98.2635518,35.4248667 C97.8162346,34.7434983 97.9521563,33.787237 98.5663586,33.2910034 C99.1805608,32.7966753 100.04084,32.9474608 100.489875,33.6269237 Z M120.433239,33.2915314 C121.049075,33.7877298 121.183239,34.7439231 120.735995,35.4252431 L117.48996,40.3720813 C117.219923,40.7824319 116.801898,41 116.375287,41 C116.094857,41 115.811032,40.9045517 115.566761,40.7079778 C114.950925,40.2117794 114.816761,39.2574915 115.264005,38.574266 L118.51004,33.6274278 C118.959001,32.946093 119.819138,32.7972384 120.433239,33.2915314 Z M109.5,29 C110.328768,29 111,29.671232 111,30.5 L111,36.5 C111,37.328768 110.328768,38 109.5,38 C108.671232,38 108,37.328768 108,36.5 L108,30.5 C108,29.671232 108.671232,29 109.5,29 Z" id="Combined-Shape"></path>
        </g>
      </g>
    </g>
  </g>
</svg>
