<?xml version="1.0" encoding="UTF-8"?>
<svg xmlns="http://www.w3.org/2000/svg" xmlns:xlink="http://www.w3.org/1999/xlink" width="51px" height="42px" viewBox="0 0 51 42" version="1.1">
  <title>noun-graduation-5400397-FFFFFF</title>
  <defs>
    <linearGradient x1="75.181462%" y1="76.9095348%" x2="32.6320614%" y2="21.1472433%" id="linearGradient-1">
      <stop stop-color="#CE43FF" offset="0%"></stop>
      <stop stop-color="#4280FF" offset="51.4675754%"></stop>
      <stop stop-color="#70ED9B" offset="100%"></stop>
    </linearGradient>
  </defs>
  <g id="Homepage" stroke="none" stroke-width="1" fill="none" fill-rule="evenodd">
    <g id="Home-ALT---Desktop" transform="translate(-1423.000000, -4245.000000)" fill="url(#linearGradient-1)" fill-rule="nonzero">
      <g id="Who-Needs-Short-Term" transform="translate(0.000000, 3964.000000)">
        <g id="Small-Card-Copy-14" transform="translate(1338.000000, 251.000000)">
          <g id="noun-graduation-5400397-FFFFFF" transform="translate(85.000000, 30.000000)">
            <path d="M22.6054796,0.779558332 C24.3889212,-0.258763578 26.6106881,-0.260941407 28.3941855,0.779558332 L49.5999046,13.1038374 C50.4767224,13.6147896 51,14.5243963 51,15.5387062 C51,16.5530162 50.4767224,17.4604673 49.6002395,17.9708946 L49,18.319 L49.0006881,32.1535466 C50.1019313,32.5036519 51,33.4524697 51,35 C51,39 45,39 45,35 C45,33.9632374 45.4030788,33.195194 46.0002878,32.6958697 L46,20.062 L43.1702046,21.7074909 L43.1702046,30.3975875 C43.1702046,32.4130846 42.0865875,34.2912109 40.340152,35.2968095 L31.4921562,40.4010825 C29.6434653,41.4677609 27.5719559,42 25.5008372,42 C23.4297186,42 21.3562556,41.4655384 19.5095183,40.4010825 L10.659848,35.2968095 C8.91558938,34.2912667 7.82979538,32.4153182 7.82979538,30.3975875 L7.82979538,21.7091662 L1.39976054,17.970392 C0.523277575,17.4599424 0,16.5503358 0,15.5360258 C0,14.5217159 0.523277575,13.6142647 1.39976054,13.1038374 Z M40.0325485,23.5328468 L28.3959716,30.2969606 C27.5020181,30.8182771 26.5012882,31.0756741 25.5005023,31.0756741 C24.4997165,31.0756741 23.4989866,30.816116 22.6050331,30.2969606 L10.9684561,23.5328468 L10.9684561,30.3952421 C10.9684561,31.2917259 11.450318,32.125008 12.2264992,32.5721778 L21.0761695,37.6764508 C23.8039109,39.2491785 27.1965915,39.2491785 29.9241654,37.6764508 L38.7721612,32.5721778 C39.5505304,32.1272305 40.0302043,31.2917818 40.0302043,30.3952421 L40.0325485,23.5328468 Z M26.8151431,3.49117894 C26.0018441,3.01783058 24.992351,3.01783058 24.1791079,3.49117894 L3.46178117,15.5362492 L24.1813405,27.5813194 C24.9946394,28.0546678 26.0041326,28.0546678 26.8173757,27.5813194 L47.5347024,15.5340155 Z" id="Combined-Shape"></path>
          </g>
        </g>
      </g>
    </g>
  </g>
</svg>
