<?xml version="1.0" encoding="UTF-8"?>
<svg xmlns="http://www.w3.org/2000/svg" xmlns:xlink="http://www.w3.org/1999/xlink" width="43px" height="50px" viewBox="0 0 43 50" version="1.1">
  <title>noun-driver-4185372-FFFFFF</title>
  <defs>
    <linearGradient x1="72.4291739%" y1="95.5204891%" x2="32.8876942%" y2="22.847477%" id="linearGradient-1">
      <stop stop-color="#CE43FF" offset="0%"></stop>
      <stop stop-color="#4280FF" offset="51.4675754%"></stop>
      <stop stop-color="#70ED9B" offset="100%"></stop>
    </linearGradient>
  </defs>
  <g id="Homepage" stroke="none" stroke-width="1" fill="none" fill-rule="evenodd">
    <g id="Home-ALT---Desktop" transform="translate(-449.000000, -4461.000000)" fill="url(#linearGradient-1)" fill-rule="nonzero">
      <g id="Who-Needs-Short-Term" transform="translate(0.000000, 3964.000000)">
        <g id="Small-Card-Copy-13" transform="translate(361.000000, 471.000000)">
          <g id="noun-driver-4185372-FFFFFF" transform="translate(88.000000, 26.000000)">
            <path d="M15.9001076,20.0001134 C16.1853265,19.9955471 16.4564941,20.1291249 16.629477,20.35645 C17.8987519,21.6875479 19.6753778,22.4093897 21.5104107,22.3437677 C23.3430499,22.4094017 25.115008,21.6946272 26.3913445,20.3752283 C26.5573436,20.138532 26.833185,20.0049495 27.1207138,20.019011 L30.8609159,20.019011 C32.3990665,20.1103826 33.7969446,20.9517454 34.6011179,22.2688046 L42.3436354,32.1864945 C43.1774312,33.4993541 43.219501,35.1655812 42.4551234,36.5177971 C41.5855413,37.9520855 40.0123226,38.8027738 38.3409011,38.7488724 L35.9658429,38.7488724 C35.2715417,39.5386999 34.3598899,40.1058099 33.3477014,40.3800027 C32.576382,44.0357073 30.1686494,47.1314832 26.8188047,48.7696329 C23.469379,50.4101224 19.551263,50.4101224 16.2014183,48.7696329 C12.8516933,47.1317832 10.4439607,44.0359472 9.67252159,40.3800027 C8.65799926,40.0940689 7.74401356,39.5292808 7.03570906,38.7488724 L4.67938176,38.7488724 C2.99862472,38.7816294 1.43007374,37.8981504 0.583830581,36.442804 C-0.194610194,35.1303644 -0.194610194,33.4992941 0.583830581,32.1869145 L8.41970351,22.1750332 C9.22854464,20.8720127 10.6287566,20.0564775 12.1599056,20.0001134 Z M29.5705162,40.1729617 C28.5352283,43.7794708 25.2435513,46.2636028 21.5012547,46.2636028 C17.7589581,46.2636028 14.4675803,43.7796508 13.4319932,40.1729617 C12.8732967,40.4330918 12.2701368,40.5877672 11.6553673,40.6229204 C12.2491318,42.7836822 13.5371377,44.6889873 15.3184314,46.043543 C17.0999046,47.3980987 19.2762235,48.1292631 21.5110092,48.1222846 L21.511,48.122 L21.8828567,48.1162657 C23.864466,48.0480228 25.7852266,47.4030857 27.4069135,46.2571994 L27.7074169,46.0364937 C29.4887105,44.6772584 30.7743945,42.7672737 31.3658132,40.6041721 L31.1039991,40.6041721 C30.5733691,40.5408959 30.0567425,40.3955953 29.5705162,40.1729617 Z M26.6352655,37.0793756 L25.0269786,37.5668308 C25.0339916,37.6488553 25.0339916,37.728534 25.0269786,37.8105585 C25.0176431,39.3877538 23.9633848,40.7657553 22.4462392,41.1852488 L22.4462392,44.2974633 C25.1999256,43.9060592 27.401977,41.8039121 27.9256053,39.0666632 L27.7760271,38.8416839 L27.495512,38.5417114 L27.1401928,38.0355078 L26.9157807,37.6980388 C26.8783786,37.6293051 26.8451324,37.5605681 26.813964,37.4918288 L26.6352655,37.0793756 Z M16.4054837,37.1355904 C16.3540545,37.2551114 16.2932777,37.3676011 16.2184736,37.4730594 C16.0922403,37.7331896 15.9496459,37.9839486 15.7883504,38.2229906 L15.4330312,38.6542011 C15.3208251,38.785439 15.2273201,38.9354253 15.096413,39.0666632 C15.6410463,41.782764 17.8384299,43.8568217 20.5757791,44.2411584 L20.5757791,41.128944 C19.0633611,40.7071227 18.0161081,39.3291091 18.0137706,37.7542536 Z M22.1396324,36.2870883 C21.5248629,36.0316617 20.8188683,36.1722528 20.3466693,36.6433056 C19.8768042,37.1167221 19.7365496,37.8244772 19.9913501,38.4408006 C20.2461626,39.0571361 20.8445949,39.4602571 21.5108296,39.4602571 C22.4201176,39.4602571 23.1564886,38.7220248 23.1564886,37.8104085 C23.1564886,37.1424898 22.7544019,36.5425328 22.1396324,36.2870883 Z M15.4883563,21.8927891 L12.1595764,21.8927891 C11.278325,21.9724617 10.4905427,22.4763555 10.0463922,23.2426652 L2.17341646,33.2917431 C1.77368161,34.001838 1.77368161,34.8689384 2.17341646,35.5790332 C2.72277734,36.4250216 3.67416505,36.9171619 4.67935184,36.8726345 L7.48450338,36.8726345 C7.77904579,36.8702888 8.05722108,37.0085581 8.2325438,37.2476001 C8.80057576,37.9975313 9.62808799,38.5060807 10.5514691,38.6724694 C10.7618539,38.6982484 10.9769186,38.6982484 11.1873034,38.6724694 C12.2766298,38.6841683 13.3168847,38.2178311 14.0368586,37.3952466 C14.7545226,36.5750018 15.0794534,35.4805823 14.9275055,34.3978616 C14.8947772,34.1119519 14.8199732,33.8354132 14.7030934,33.5729373 C14.3196778,32.5886676 13.5389031,31.8129448 12.5524473,31.4356334 C12.2883232,31.3114268 12.0031342,31.2340891 11.7109317,31.2106541 C11.2947819,31.1450321 10.8740301,31.1450321 10.4579341,31.2106541 C9.56728726,31.3981369 8.77715312,31.9043104 8.23248395,32.6355233 C8.0595011,32.8769052 7.78131983,33.0175197 7.48444354,33.0104889 L4.67929199,33.0104889 C4.16267733,33.0104889 3.74424148,32.5909954 3.74424148,32.0730749 C3.74424148,31.5551545 4.16267733,31.1356609 4.67929199,31.1356609 L6.96081525,31.1356609 C7.76259489,30.2263844 8.84025183,29.6053334 10.0277809,29.3733227 C10.6472781,29.281927 11.2783848,29.281927 11.897882,29.3733227 L12.6085204,29.5045606 C14.8999178,27.0039901 18.13235,25.5791208 21.5197762,25.5791208 C24.9072024,25.5791208 28.1401732,27.0039901 30.431032,29.5045606 C31.2445409,29.326449 32.0860565,29.326449 32.8995654,29.5045606 C34.0940363,29.7342195 35.1786949,30.3529428 35.9852021,31.2668989 L38.3415294,31.2668989 C38.8581441,31.2668989 39.27658,31.6863924 39.27658,32.2043129 C39.27658,32.7222334 38.8581441,33.1417269 38.3415294,33.1417269 L35.5363779,33.1417269 C35.2395016,33.1487582 34.9613203,33.0081431 34.7883375,32.7667613 C34.2460381,32.0238495 33.4441986,31.5153121 32.5442162,31.341892 C31.8616443,31.2200252 31.1604013,31.2786158 30.505836,31.5106265 C30.1668241,31.6348331 29.8442571,31.8035677 29.5520546,32.0168301 C29.0074213,32.431632 28.5866456,32.9894009 28.3365189,33.6291821 C28.0863927,34.219768 28.0022405,34.8689084 28.0934057,35.5040101 C28.3318212,37.1749768 29.6572291,38.480301 31.3286506,38.6912177 C31.6886675,38.7474625 32.0533162,38.7474625 32.4133092,38.6912177 C33.360089,38.5342121 34.210976,38.0162796 34.7883674,37.2476301 C34.9636901,37.0085881 35.2418654,36.8703211 35.5364078,36.8726645 L38.3415594,36.8726645 C39.3467461,36.9172404 40.2981518,36.4251056 40.8474947,35.5790632 C41.2928122,34.8361214 41.2928122,33.903387 40.8463278,33.1604752 L33.1415116,23.3363766 C32.6692886,22.5044329 31.8137697,21.9607508 30.8599883,21.8927891 L27.5312085,21.8927891 C25.8881527,23.4020706 23.7396011,24.2386938 21.5097824,24.2386938 C19.2799637,24.2386938 17.1317113,23.4020106 15.4883563,21.8927891 Z M21.5108296,31.2486606 C19.6454562,31.2392414 17.8641625,32.0384281 16.629836,33.4421793 L16.629836,33.4610176 C16.7186673,33.707091 16.7934713,33.957844 16.8542481,34.2109488 C16.8916502,34.5671361 16.8916502,34.9233534 16.8542481,35.2795707 L18.6121431,35.9545088 C19.2293064,34.9561404 20.3069633,34.335126 21.4804293,34.3046602 C22.6515613,34.274183 23.7596186,34.8389711 24.4281872,35.8045225 L26.2982883,35.2420742 C26.2795872,34.9725369 26.2795872,34.7053754 26.2982883,34.4358681 L26.2982883,34.0421543 C26.3240029,33.8476401 26.3614043,33.653126 26.4104943,33.4609576 C25.169226,32.0548666 23.3855984,31.2486606 21.5108296,31.2486606 Z M21.5109493,27.4985247 C18.8555854,27.4985247 16.3028526,28.5273103 14.386014,30.3669815 C14.9096423,30.7279084 15.3654802,31.1778731 15.7324867,31.6981393 C18.9652182,28.5976238 24.0565009,28.5976238 27.2894119,31.6981393 C27.6049952,31.2411313 27.9906968,30.8356885 28.4301735,30.4982194 C28.4956241,30.4513457 28.5657543,30.4068214 28.6358846,30.3669815 C26.7191657,28.5273103 24.1663132,27.4985247 21.5109493,27.4985247 Z M22,0 C24.6520899,0 27.1953198,1.05477204 29.070378,2.92955386 C30.9454361,4.80433568 32,7.34773907 32,9.99976727 C32,12.6517955 30.9452034,15.1949661 29.070378,17.0699807 C27.1955525,18.9449952 24.6523227,19.9995345 22,19.9995345 C19.350121,19.9954618 16.8092185,18.9409225 14.9341603,17.065908 C13.0591021,15.1906607 12.0045452,12.6497591 12,9.99976727 C12,7.34773907 13.0547966,4.80456841 14.929622,2.92955386 C16.8044475,1.05453932 19.3479101,0 22,0 Z M25.7999209,7.27233587 C24.6543009,9.50871559 21.7271225,12.3995788 14.3088112,12.7268496 C15.4567585,15.9904815 18.5385869,18.1768182 22,18.1813633 C26.1544871,18.169727 29.6386264,15.0382252 30.0909049,10.9086783 C28.3522272,10.1154902 26.8680995,8.85644302 25.7999209,7.27233587 Z M22,1.81782215 C17.4860885,1.82675301 13.8269264,5.48590263 13.8178354,9.99950546 C13.8110169,10.2972201 13.8246538,10.5949289 13.8541996,10.8903803 C24.1717943,10.5534222 24.6544312,5.06624989 24.6721146,4.57302729 L24.6727157,4.5451081 C24.6113329,4.04283902 24.9704489,3.58831367 25.4727297,3.52693221 C25.9750105,3.46555075 26.4295639,3.82465847 26.4909293,4.32692755 C27.0182403,6.23144011 28.2977972,7.84050711 30.0364748,8.781418 C30.0273838,8.70869115 30.0273838,8.6359643 30.0364748,8.56323745 C30.0001105,8.34502781 29.8728356,8.14502897 29.8728356,7.92684843 C29.8069261,7.63591194 29.7228344,7.35182341 29.6182857,7.07227885 L29.3455537,6.47231143 C29.2205537,6.21094859 29.0796407,5.95640462 28.9273646,5.70867951 C28.8228158,5.52231842 28.7023599,5.34504527 28.5637218,5.18140985 C28.3978077,4.94507668 28.2159863,4.72007727 28.0182578,4.50871559 L27.5818865,4.05417278 L26.9091766,3.49053969 L26.4000768,3.12690544 C26.136462,2.96327003 25.8637358,2.81782215 25.5819098,2.69054435 C25.4000884,2.59963578 25.2364492,2.41781866 25.0546279,2.41781866 C24.7318877,2.29736554 24.4046151,2.19509414 24.0727925,2.10872955 L23.5818749,1.98145756 C23.0613713,1.87236729 22.531826,1.81782215 22,1.81782215 Z" id="Combined-Shape"></path>
          </g>
        </g>
      </g>
    </g>
  </g>
</svg>
