<?xml version="1.0" encoding="UTF-8"?>
<svg xmlns="http://www.w3.org/2000/svg" xmlns:xlink="http://www.w3.org/1999/xlink" width="18px" height="18px" viewBox="0 0 18 18" version="1.1">
  <title>Icons/icon-arrow-right-circle</title>
  <g id="Homepage" stroke="none" stroke-width="1" fill="none" fill-rule="evenodd">
    <g id="Button-Transitions" transform="translate(-179.000000, -221.000000)" fill="#000000" fill-rule="nonzero">
      <g id="Buttons-/-Primary-Copy-3" transform="translate(0.000000, 210.000000)">
        <g id="Icons/icon-arrow-right-circle" transform="translate(179.200000, 11.200000)">
          <path d="M8.8,0 C3.9398942,0 0,3.9398942 0,8.8 C0,13.6601058 3.9398942,17.6 8.8,17.6 C13.6601058,17.6 17.6,13.6601058 17.6,8.8 C17.6,3.9398942 13.6601058,0 8.8,0 Z M8.8,1.6 C12.7764502,1.6 16,4.8235498 16,8.8 C16,12.7764502 12.7764502,16 8.8,16 C4.8235498,16 1.6,12.7764502 1.6,8.8 C1.6,4.8235498 4.8235498,1.6 8.8,1.6 Z" id="Oval"></path>
          <path d="M8.23431458,5.03431458 C8.52270174,4.74592741 8.97648659,4.72374378 9.29031955,4.96776369 L9.36568542,5.03431458 L12.5656854,8.23431458 C12.8540726,8.52270174 12.8762562,8.97648659 12.6322363,9.29031955 L12.5656854,9.36568542 L9.36568542,12.5656854 C9.05326599,12.8781049 8.54673401,12.8781049 8.23431458,12.5656854 C7.94592741,12.2772983 7.92374378,11.8235134 8.16776369,11.5096804 L8.23431458,11.4343146 L10.868,8.8 L8.23431458,6.16568542 C7.94592741,5.87729826 7.92374378,5.42351341 8.16776369,5.10968045 L8.23431458,5.03431458 Z" id="Path"></path>
          <path d="M12,8 C12.4418278,8 12.8,8.3581722 12.8,8.8 C12.8,9.21026867 12.4911678,9.54840573 12.0932969,9.59461781 L12,9.6 L5.6,9.6 C5.1581722,9.6 4.8,9.2418278 4.8,8.8 C4.8,8.38973133 5.10883215,8.05159427 5.5067031,8.00538219 L5.6,8 L12,8 Z" id="Path"></path>
        </g>
      </g>
    </g>
  </g>
</svg>
