<?xml version="1.0" encoding="UTF-8"?>
<svg xmlns="http://www.w3.org/2000/svg" xmlns:xlink="http://www.w3.org/1999/xlink" width="36px" height="36px" viewBox="0 0 36 36" version="1.1">
  <title>Icons/icon-arrow-right-circle</title>
  <g id="Homepage" stroke="none" stroke-width="1" fill="none" fill-rule="evenodd">
    <g id="Menu---Desktop" transform="translate(-1445.000000, -634.000000)" fill="#4280FF" fill-rule="nonzero">
      <g id="Group-2" transform="translate(362.000000, 153.000000)">
        <g id="Icons/icon-arrow-right-circle" transform="translate(1083.400000, 481.400000)">
          <path d="M17.6,0 C7.8797884,0 0,7.8797884 0,17.6 C0,27.3202116 7.8797884,35.2 17.6,35.2 C27.3202116,35.2 35.2,27.3202116 35.2,17.6 C35.2,7.8797884 27.3202116,0 17.6,0 Z M17.6,3.2 C25.5529004,3.2 32,9.6470996 32,17.6 C32,25.5529004 25.5529004,32 17.6,32 C9.6470996,32 3.2,25.5529004 3.2,17.6 C3.2,9.6470996 9.6470996,3.2 17.6,3.2 Z" id="Oval"></path>
          <path d="M16.4686292,10.0686292 C17.0454035,9.49185481 17.9529732,9.44748755 18.5806391,9.93552738 L18.7313708,10.0686292 L25.1313708,16.4686292 C25.7081452,17.0454035 25.7525124,17.9529732 25.2644726,18.5806391 L25.1313708,18.7313708 L18.7313708,25.1313708 C18.106532,25.7562097 17.093468,25.7562097 16.4686292,25.1313708 C15.8918548,24.5545965 15.8474876,23.6470268 16.3355274,23.0193609 L16.4686292,22.8686292 L21.736,17.6 L16.4686292,12.3313708 C15.8918548,11.7545965 15.8474876,10.8470268 16.3355274,10.2193609 L16.4686292,10.0686292 Z" id="Path"></path>
          <path d="M24,16 C24.8836556,16 25.6,16.7163444 25.6,17.6 C25.6,18.4205373 24.9823357,19.0968115 24.1865938,19.1892356 L24,19.2 L11.2,19.2 C10.3163444,19.2 9.6,18.4836556 9.6,17.6 C9.6,16.7794627 10.2176643,16.1031885 11.0134062,16.0107644 L11.2,16 L24,16 Z" id="Path"></path>
        </g>
      </g>
    </g>
  </g>
</svg>
