<?xml version="1.0" encoding="UTF-8"?>
<svg xmlns="http://www.w3.org/2000/svg" xmlns:xlink="http://www.w3.org/1999/xlink" width="49px" height="42px" viewBox="0 0 49 42" version="1.1">
  <title>noun-house-1037120-FFFFFF</title>
  <defs>
    <linearGradient x1="87.0262913%" y1="86.7346939%" x2="25.6960763%" y2="19.9150001%" id="linearGradient-1">
      <stop stop-color="#CE43FF" offset="0%"></stop>
      <stop stop-color="#4280FF" offset="51.4675754%"></stop>
      <stop stop-color="#70ED9B" offset="100%"></stop>
    </linearGradient>
  </defs>
  <g id="Homepage" stroke="none" stroke-width="1" fill="none" fill-rule="evenodd">
    <g id="Home-ALT---Desktop" transform="translate(-691.000000, -4245.000000)" fill="url(#linearGradient-1)" fill-rule="nonzero">
      <g id="Who-Needs-Short-Term" transform="translate(0.000000, 3964.000000)">
        <g id="Small-Card-Copy" transform="translate(605.000000, 251.000000)">
          <g id="noun-house-1037120-FFFFFF" transform="translate(86.000000, 30.000000)">
            <path d="M23.5472229,0.307987545 L0.680441556,16.4508991 C0.104089778,16.8607784 -0.138352549,17.5901582 0.0785552052,18.2564837 C0.295484737,18.9249079 0.922883882,19.3768018 1.63322411,19.3768018 L6.55023543,19.3768018 L6.55023543,40.3625868 C6.55023543,41.2537832 7.28186354,41.976878 8.18357695,41.976878 L19.0556426,41.976878 C19.957356,41.976878 20.6889841,41.2537832 20.6889841,40.3625868 L20.6889841,28.5244517 L28.3112445,28.5244517 L28.3112445,40.3625868 C28.3112445,41.2537832 29.0428726,41.976878 29.944586,41.976878 L35.3890578,41.976878 C35.827169,41.9831839 36.2482499,41.8150291 36.5587481,41.5123495 C36.8713805,41.20967 37.0457724,40.7956043 37.0457724,40.3625976 C37.0457724,39.9295909 36.8713805,39.5155252 36.5587481,39.2128456 C36.2482444,38.910166 35.82712,38.7420107 35.3890578,38.7483172 L31.5779276,38.7483172 L31.5779276,26.9101821 C31.5779276,26.0189857 30.8462994,25.2958909 29.944586,25.2958909 L19.0556426,25.2958909 C18.1539292,25.2958909 17.422301,26.0189857 17.422301,26.9101821 L17.422301,38.7483172 L9.81691847,38.7483172 L9.81691847,17.7625322 C9.81691847,16.8713358 9.08529036,16.148241 8.18357695,16.148241 L6.73741636,16.148241 L24.5,3.60412256 L42.2625945,16.148241 L40.8164339,16.148241 C39.9147205,16.148241 39.1830924,16.8713358 39.1830924,17.7625322 L39.1830924,40.3626083 C39.176712,40.7956097 39.3468512,41.2117793 39.6531027,41.518656 C39.9593542,41.8276421 40.3783063,42 40.816423,42 C41.2545396,42 41.6734917,41.8276421 41.9797433,41.518656 C42.2859948,41.2117739 42.4561345,40.7955612 42.4497536,40.3626083 L42.4497536,19.3768233 L47.3667649,19.3768233 C48.0771052,19.3768233 48.7044716,18.9249079 48.9214338,18.2565053 C49.1383634,17.5901797 48.8959129,16.8607891 48.3195475,16.4509206 L25.4527662,0.308009068 C25.1380104,0.0831006438 24.7509193,-0.0261976293 24.3638718,0.00532947695 C24.0682751,0.0305312524 23.7875418,0.135629678 23.5472229,0.307987545 Z" id="Path"></path>
          </g>
        </g>
      </g>
    </g>
  </g>
</svg>
