<?xml version="1.0" encoding="UTF-8"?>
<svg xmlns="http://www.w3.org/2000/svg" xmlns:xlink="http://www.w3.org/1999/xlink" width="42px" height="42px" viewBox="0 0 42 42" version="1.1">
  <title>Combined Shape</title>
  <defs>
    <linearGradient x1="75.3927166%" y1="80.0425351%" x2="13.8687329%" y2="10.7627949%" id="linearGradient-1">
      <stop stop-color="#CE43FF" offset="0%"></stop>
      <stop stop-color="#4280FF" offset="51.4675754%"></stop>
      <stop stop-color="#70ED9B" offset="100%"></stop>
    </linearGradient>
  </defs>
  <g id="Homepage" stroke="none" stroke-width="1" fill="none" fill-rule="evenodd">
    <g id="Home-ALT---Desktop" transform="translate(-938.000000, -2459.000000)" fill="url(#linearGradient-1)" fill-rule="nonzero">
      <g id="Who-Needs-Short-Term-Copy" transform="translate(361.000000, 2318.000000)">
        <g id="Small-Card-Copy-5" transform="translate(488.000000, 111.000000)">
          <g id="Group" transform="translate(89.000000, 30.000000)">
            <path d="M38,0 C40.209139,0 42,1.790861 42,4 L42,38 C42,40.209139 40.209139,42 38,42 L4,42 C1.790861,42 0,40.209139 0,38 L0,4 C0,1.790861 1.790861,0 4,0 L38,0 Z M38,3 L4,3 C3.44771525,3 3,3.44771525 3,4 L3,38 C3,38.5522847 3.44771525,39 4,39 L38,39 C38.5522847,39 39,38.5522847 39,38 L39,4 C39,3.44771525 38.5522847,3 38,3 Z M18.6258462,9.6 L18.6258462,28.32 L29.3138462,28.32 L29.3138462,32 L14.6258462,32 L14.6258462,9.6 L18.6258462,9.6 Z" id="Combined-Shape"></path>
          </g>
        </g>
      </g>
    </g>
  </g>
</svg>
