<?xml version="1.0" encoding="UTF-8"?>
<svg xmlns="http://www.w3.org/2000/svg" xmlns:xlink="http://www.w3.org/1999/xlink" width="42px" height="42px" viewBox="0 0 42 42" version="1.1">
  <title>noun-timer-5403394-FFFFFF</title>
  <defs>
    <linearGradient x1="81.7744459%" y1="90.6445021%" x2="16.0641093%" y2="10.0661509%" id="linearGradient-1">
      <stop stop-color="#CE43FF" offset="0%"></stop>
      <stop stop-color="#4280FF" offset="51.4675754%"></stop>
      <stop stop-color="#70ED9B" offset="100%"></stop>
    </linearGradient>
  </defs>
  <g id="Homepage" stroke="none" stroke-width="1" fill="none" fill-rule="evenodd">
    <g id="Home-ALT---Desktop" transform="translate(-815.000000, -2680.000000)" fill="url(#linearGradient-1)" fill-rule="nonzero">
      <g id="Who-Needs-Short-Term-Copy" transform="translate(361.000000, 2318.000000)">
        <g id="Small-Card-Copy-9" transform="translate(365.000000, 332.000000)">
          <g id="noun-timer-5403394-FFFFFF" transform="translate(89.000000, 30.000000)">
            <path d="M21.0032836,0 C9.42463451,0 0,9.42307692 0,21.0016417 C0,32.5793856 9.42381362,42 21.0032836,42 C32.5827535,42 42,32.5793856 42,21.0016417 C42,9.42389775 32.5819326,0 21.0032836,0 L21.0032836,0 Z M21.0032836,3.23200047 C30.837542,3.23200047 38.7714409,11.1677416 38.7714409,21.0012312 C38.7714409,30.8347209 30.8382808,38.7679995 21.0032836,38.7679995 C11.1682863,38.7679995 3.23266359,30.8354597 3.23266359,21.0012312 C3.23266359,11.1677416 11.1690251,3.23200047 21.0032836,3.23200047 Z M20.961598,6.46720216 C20.0894027,6.48964681 19.3871315,7.20466463 19.3871315,8.07996013 C19.3871315,8.97449578 20.1118212,9.69600141 21.0032992,9.69600141 C21.8947771,9.69600141 22.6194668,8.97456965 22.6194668,8.07996013 C22.6194668,7.1886257 21.8947771,6.46720216 21.0032992,6.46720216 L20.9616136,6.46720216 L20.961598,6.46720216 Z M14.4585919,8.1986515 C14.2116847,8.21147608 13.9615679,8.27881004 13.7339023,8.41347795 C12.9611086,8.85916159 12.6981858,9.84992261 13.1438879,10.6226477 C13.5896063,11.3953811 14.5772433,11.6582833 15.3500289,11.2126161 C16.1228226,10.7637312 16.3857454,9.77937265 15.9400434,9.00664751 C15.6257986,8.46157012 15.0454378,8.1698159 14.4585837,8.1986515 L14.4585919,8.1986515 Z M27.3941716,8.1986515 C26.8618739,8.2243023 26.3520522,8.5096705 26.0666288,9.00664751 C25.6209104,9.77938086 25.8838495,10.7637066 26.6566433,11.2126161 C27.4294371,11.6582997 28.4170412,11.3953811 28.8627843,10.6226477 L28.8659907,10.6226477 C29.3117092,9.8499144 29.0455604,8.85918621 28.2727666,8.41347795 C27.9937954,8.25316252 27.692373,8.18583021 27.3941684,8.1986515 L27.3941716,8.1986515 Z M9.73519267,12.9280019 C9.20289497,12.9536527 8.69627469,13.2390209 8.41085134,13.7360061 C7.96513287,14.5087394 8.23128172,15.4962664 9.00407548,15.9419747 C9.77686924,16.3876583 10.7612719,16.1247397 11.2102165,15.3520063 C11.655935,14.579273 11.3929958,13.591746 10.6202021,13.1460378 C10.3412309,12.9857223 10.0333973,12.9151806 9.73520088,12.9280101 L9.73519267,12.9280019 Z M32.3195098,12.931208 C32.0341193,12.9280019 31.7551481,13.0017481 31.5082409,13.142825 L20.2021272,19.606826 C19.8301575,19.818443 19.554396,20.1711435 19.442164,20.5847575 C19.3267305,20.9983797 19.3844456,21.4408785 19.5960808,21.8127946 C19.810924,22.184727 20.1604425,22.4540645 20.5740888,22.5662878 C20.9877433,22.678511 21.4302767,22.6207955 21.8022218,22.4091735 L33.1214697,15.9451726 C33.4902298,15.7303462 33.7627898,15.3776456 33.8750219,14.9640399 C33.9872539,14.5504177 33.9295339,14.1111201 33.7178954,13.739204 C33.5030521,13.3672634 33.150324,13.0979341 32.7366859,12.9889203 C32.6020107,12.9504441 32.4609162,12.9312056 32.3198299,12.9312056 L32.3195098,12.931208 Z M8.03923458,19.3888065 C7.16383782,19.4112512 6.46476816,20.126269 6.46476816,21.0048478 C6.46476816,21.8961822 7.18625631,22.6208891 8.07765222,22.6208891 C8.9722578,22.6208891 9.69381983,21.8962561 9.69381983,21.0048478 C9.69381983,20.1134395 8.97233168,19.3888065 8.07765222,19.3888065 L8.03917301,19.3888065 L8.03923458,19.3888065 Z M9.76761782,25.8496062 C9.50788011,25.8560185 9.24494094,25.9297648 9.00444488,26.0676339 C8.23165112,26.5133175 7.96552689,27.5008773 8.41122074,28.2736025 C8.85693922,29.0463358 9.8477777,29.309238 10.6205632,28.8635708 C11.3901473,28.4178872 11.6562798,27.4303274 11.2105777,26.6576023 C10.9027441,26.1285556 10.3415839,25.8367767 9.76761782,25.849598 L9.76761782,25.8496062 Z M14.5069423,30.5789566 C13.9618223,30.5917828 13.4359276,30.8803555 13.1441013,31.3869608 L13.1408949,31.3869608 C12.6951764,32.1596942 12.9613253,33.1504224 13.734119,33.5961306 C14.5069128,34.0418143 15.4913155,33.7756862 15.9402601,33.0029529 C16.3859785,32.2302195 16.1230394,31.2426925 15.3502456,30.7969843 C15.0840967,30.6430795 14.7922951,30.5725378 14.5069456,30.5789484 L14.5069423,30.5789566 Z M27.4195371,30.5789566 C27.1597994,30.5885759 26.9000699,30.659116 26.6563642,30.7969925 C25.8835704,31.2426761 25.6206477,32.2302359 26.0663497,33.0029611 C26.5120682,33.7756944 27.4997052,34.0417978 28.2724908,33.5961388 C29.0452845,33.1504552 29.3082073,32.1596942 28.8625052,31.386969 C28.5546716,30.8579224 27.9935114,30.5661435 27.4195453,30.5789648 L27.4195371,30.5789566 Z M20.9614338,32.3136072 C20.0892385,32.3360518 19.3869674,33.0510697 19.3869674,33.9263652 C19.3869674,34.8209008 20.111657,35.5424064 21.003135,35.5424064 C21.894613,35.5424064 22.6193026,34.8209747 22.6193026,33.9263652 C22.6193026,33.0350307 21.894613,32.3136072 21.003135,32.3136072 L20.9614494,32.3136072 L20.9614338,32.3136072 Z" id="Shape"></path>
          </g>
        </g>
      </g>
    </g>
  </g>
</svg>
