<?xml version="1.0" encoding="utf-8"?>
<svg width="48px" height="49px" viewBox="0 0 48 49" version="1.1" xmlns:xlink="http://www.w3.org/1999/xlink" xmlns="http://www.w3.org/2000/svg">
  <g id="Social-IconsInstagram">
    <path d="M0 0L48 0L48 48L0 48L0 0Z" id="Social-IconsInstagram" fill="none" fill-rule="evenodd" stroke="none" />
    <g id="Group-9">
      <path d="M24 0C10.745 0 0 10.9688 0 24.5C0 38.0312 10.745 49 24 49C37.255 49 48 38.0312 48 24.5C48 10.9688 37.255 0 24 0M24 2.61333C35.8221 2.61333 45.44 12.4316 45.44 24.5C45.44 36.5684 35.8221 46.3867 24 46.3867C12.1779 46.3867 2.56 36.5684 2.56 24.5C2.56 12.4316 12.1779 2.61333 24 2.61333" id="Fill-1" fill="#70ED9B" fill-rule="evenodd" stroke="none" />
      <path d="M32.3569 28.9306C32.3569 31.1856 30.5872 33.0304 28.4245 33.0304L18.5966 33.0304C16.4332 33.0304 14.6641 31.1856 14.6641 28.9306L14.6641 19.0688C14.6641 16.8138 16.4332 14.969 18.5966 14.969L28.4245 14.969C30.5872 14.969 32.3569 16.8138 32.3569 19.0688L32.3569 28.9306ZM28.6051 13L18.4153 13C15.291 13 12.7347 15.6646 12.7347 18.9219L12.7347 29.0775C12.7347 32.3348 15.291 35 18.4153 35L28.6051 35C31.7294 35 34.2857 32.3348 34.2857 29.0775L34.2857 18.9219C34.2857 15.6646 31.7294 13 28.6051 13L28.6051 13Z" id="Fill-3" fill="#70ED9B" fill-rule="evenodd" stroke="none" />
      <path d="M24 28.0483C22.0801 28.0483 20.5239 26.4595 20.5239 24.5003C20.5239 22.5405 22.0801 20.9517 24 20.9517C25.9199 20.9517 27.4761 22.5405 27.4761 24.4997C27.4761 26.4595 25.9199 28.0483 24 28.0483M24 19C21.0244 19 18.6122 21.4626 18.6122 24.4997C18.6122 27.5374 21.0244 30 24 30C26.9756 30 29.3878 27.5374 29.3878 24.5003C29.3878 21.4626 26.9756 19 24 19" id="Fill-5" fill="#70ED9B" fill-rule="evenodd" stroke="none" />
      <path d="M31.3469 18.5C31.3469 19.3288 30.6891 20 29.8776 20C29.066 20 28.4082 19.3288 28.4082 18.5C28.4082 17.6712 29.066 17 29.8776 17C30.6891 17 31.3469 17.6712 31.3469 18.5" id="Fill-7" fill="#70ED9B" fill-rule="evenodd" stroke="none" />
    </g>
  </g>
</svg>