<?xml version="1.0" encoding="UTF-8"?>
<svg xmlns="http://www.w3.org/2000/svg" xmlns:xlink="http://www.w3.org/1999/xlink" id="Layer_2" viewBox="0 0 96.97 94.33">
  <defs>
    <style>.cls-1{fill:url(#linear-gradient);}</style>
    <linearGradient id="linear-gradient" x1="0" y1="47.17" x2="96.97" y2="47.17" gradientUnits="userSpaceOnUse">
      <stop offset="0" stop-color="#66e88f"></stop>
      <stop offset=".48" stop-color="#3b75ff"></stop>
      <stop offset=".98" stop-color="#d142ff"></stop>
      <stop offset="1" stop-color="#d142ff"></stop>
    </linearGradient>
  </defs>
  <g id="Layer_1-2">
    <path class="cls-1" d="m74.95,50.3h-9.09c-2.67,0-4.85-2.18-4.85-4.86s2.18-4.85,4.85-4.85h14.81v-.05c.17-.2,15.15-18.11,15.15-26.07S89.02,0,80.66,0s-15.17,6.47-15.17,14.47c0,5.1,6.04,14.06,10.51,20.06h-10.14c-6.02,0-10.91,4.89-10.91,10.91s4.89,10.93,10.91,10.93h9.09c8.8,0,15.95,7.15,15.95,15.95s-7.15,15.95-15.95,15.95h-30.06c.98-.83,1.71-1.95,2.02-3.24,1.67-.23,2.95-1.65,2.95-3.38v-9.67c0-1.52-.62-3-1.68-4.06-.89-.89-1.67-1.67-2.48-2.48l-1.38-1.38c-1.07-1.09-2.53-1.7-4.07-1.7h-4v-5.39c0-2-1.64-3.64-3.64-3.64H3.64c-2,0-3.64,1.64-3.64,3.64v24.47c0,2,1.64,3.64,3.64,3.64h2.3c.32,1.27,1.04,2.38,2.01,3.2H1.52v6.07h73.44c12.14,0,22.02-9.88,22.02-22.02s-9.88-22.02-22.02-22.02h0Zm-3.78-35.83c0-5,4.24-9.05,9.48-9.05s9.47,4.05,9.47,9.05-4.24,9.06-9.47,9.06-9.48-4.06-9.48-9.06Zm-33.38,69.09c0-1.74,1.41-3.15,3.15-3.15s3.15,1.41,3.15,3.15-1.41,3.15-3.15,3.15-3.15-1.41-3.15-3.15Zm-1.53-18.16h4c.73,0,1.41.29,1.93.8l3.88,3.88c.5.5.79,1.18.79,1.91v.09h-10.59s0-6.68,0-6.68Zm-24.35,15.02c1.74,0,3.15,1.41,3.15,3.15s-1.41,3.15-3.15,3.15-3.15-1.41-3.15-3.15,1.41-3.15,3.15-3.15Zm5.97,4.66h17.09c.32,1.27,1.04,2.38,2.01,3.2H15.87c.96-.82,1.68-1.92,2.01-3.2h0Z"></path>
  </g>
</svg>
