<svg width="40" height="40" viewBox="0 0 40 40" fill="none" xmlns="http://www.w3.org/2000/svg">
<path fill-rule="evenodd" clip-rule="evenodd" d="M20 0C8.95413 0 0 8.95413 0 20C0 31.0459 8.95413 40 20 40C31.0459 40 40 31.0459 40 20C40 8.95413 31.0459 0 20 0ZM20 2.13333C29.8517 2.13333 37.8667 10.1483 37.8667 20C37.8667 29.8517 29.8517 37.8667 20 37.8667C10.1483 37.8667 2.13333 29.8517 2.13333 20C2.13333 10.1483 10.1483 2.13333 20 2.13333Z" fill="#70ED9B"/>
<path fill-rule="evenodd" clip-rule="evenodd" d="M23.8485 20.4078H15.5103L15.5103 16.3262L24.4898 16.3262L23.8485 20.4078Z" fill="#70ED9B"/>
<path fill-rule="evenodd" clip-rule="evenodd" d="M17.143 14.3935L17.143 29.3878H21.1422L21.1422 14.9935C21.1422 14.5826 21.3929 14.3677 21.8117 14.3677H24.4898V10.6123H21.4064C17.0396 10.6123 17.143 13.9027 17.143 14.3935Z" fill="#70ED9B"/>
</svg>
