<?xml version="1.0" encoding="UTF-8"?><svg id="Layer_2" xmlns="http://www.w3.org/2000/svg" xmlns:xlink="http://www.w3.org/1999/xlink" viewBox="0 0 103.03 103.03"><defs><style>.cls-1{fill:url(#linear-gradient);}.cls-2{fill:#fff;}</style><linearGradient id="linear-gradient" x1="-771.4" y1="429.81" x2="-771.59" y2="430.34" gradientTransform="translate(89873.79 14499.07) rotate(-20) scale(103 -103)" gradientUnits="userSpaceOnUse"><stop offset="0" stop-color="#ce43ff"/><stop offset=".51" stop-color="#4280ff"/><stop offset="1" stop-color="#70ed9b"/></linearGradient></defs><g id="Layer_1-2"><g id="Homepage"><g id="Home-ALT---Desktop"><g id="Step-By-Step-Block_-Content-_-Links"><g id="Step-By-Step-Components"><g id="Group-4"><circle id="Oval" class="cls-1" cx="51.51" cy="51.51" r="51.5"/></g></g></g></g></g><path class="cls-2" d="m77.36,49.23c-.13-.12-.26-.22-.41-.32v-9.25c0-.91-.37-1.78-1.03-2.42-.66-.64-1.55-1.01-2.49-1.01h-22.1c-.94,0-1.83.37-2.49,1.01s-1.03,1.52-1.03,2.43v24.69c0,.91.37,1.78,1.03,2.42.66.64,1.56,1,2.49,1h22.1c.93,0,1.83-.36,2.49-1.01.66-.64,1.03-1.51,1.03-2.42v-10.29l.4-.39h0c.6-.59.94-1.39.94-2.22s-.34-1.63-.94-2.22Zm-2.04,15.12c0,.48-.2.95-.55,1.29-.35.34-.83.53-1.33.53h-22.1c-.5,0-.97-.19-1.32-.53-.35-.34-.55-.8-.55-1.28v-24.69c0-.48.2-.95.55-1.29.35-.34.83-.54,1.33-.54h22.1c.5,0,.97.2,1.33.54.35.34.55.81.55,1.29v8.66c-.08,0-.15-.02-.23-.02-.86,0-1.68.33-2.29.92l-.62.6-9.29,9.02c-.42.41-.66.97-.66,1.56v2.17c0,.36.15.71.41.96.26.26.62.4.99.4h2.24c.6,0,1.18-.23,1.6-.64l.37-.36,7.49-7.27v8.68Zm-10.32-5.29l7.75-7.53,2.24,2.18-7.75,7.52-2.24-2.17Zm1.01,3.24h0s-.1.03-.15.03h-1.99v-1.93s0,0,0,0c0-.05.01-.1.03-.15l2.11,2.05Zm10.19-9.76l-.03.03-2.24-2.18.03-.03h0c.3-.29.7-.45,1.12-.45.42,0,.82.17,1.12.46h0s0,0,0,0c.3.29.46.68.46,1.09s-.17.8-.46,1.09Z"/><path class="cls-2" d="m73.44,67.89h-22.1c-.97,0-1.89-.37-2.58-1.04-.69-.67-1.07-1.56-1.07-2.51v-24.69c0-.95.38-1.84,1.07-2.52.69-.67,1.6-1.04,2.58-1.05h22.1c.97,0,1.89.38,2.58,1.05.69.67,1.07,1.56,1.07,2.51v9.18c.13.09.25.19.37.29h0c.63.62.98,1.44.98,2.31s-.35,1.69-.98,2.31l-.36.35v10.24c0,.95-.38,1.84-1.07,2.51-.69.67-1.6,1.04-2.58,1.04Zm-22.1-31.55c-.91,0-1.76.35-2.41.98-.64.63-.99,1.46-.99,2.34v24.69c0,.88.36,1.71,1,2.33.64.62,1.5.97,2.4.97h22.1c.91,0,1.76-.35,2.4-.97.64-.62.99-1.45,1-2.33v-10.34l.44-.43c.58-.57.91-1.33.91-2.13s-.32-1.56-.9-2.13c-.12-.11-.25-.21-.39-.31l-.05-.04v-9.31c0-.88-.35-1.71-.99-2.33-.64-.63-1.49-.97-2.4-.98h-22.1Zm22.1,29.95h-22.1c-.53,0-1.03-.21-1.41-.57-.38-.37-.59-.85-.59-1.37v-24.69c0-.52.21-1.01.58-1.38.38-.37.88-.57,1.41-.58h22.1c.53,0,1.04.21,1.41.58.38.37.58.86.58,1.38v8.79h-.12s-.09,0-.13-.01c-.04,0-.07,0-.11,0-.82,0-1.62.32-2.19.89l-9.9,9.62c-.4.39-.62.92-.62,1.47v2.17c0,.33.13.64.37.87.24.23.57.36.9.36h2.25c.57,0,1.1-.21,1.51-.61l8.07-7.84v8.98c0,.52-.21,1.01-.59,1.38-.38.37-.88.57-1.42.57Zm-22.1-28.34c-.47,0-.91.18-1.24.51-.33.32-.51.75-.51,1.2v24.69c0,.45.18.87.51,1.19s.77.5,1.24.5h22.1c.47,0,.91-.18,1.24-.5.33-.32.51-.75.51-1.2v-8.39l-7.64,7.42c-.45.44-1.05.68-1.68.68h-2.25c-.41,0-.79-.15-1.08-.43-.29-.28-.45-.66-.45-1.05v-2.17c0-.62.25-1.2.7-1.65l9.9-9.62c.62-.61,1.48-.96,2.37-.96.04,0,.08,0,.12,0v-8.52c0-.45-.18-.88-.51-1.2-.33-.32-.77-.5-1.24-.51h-22.1Zm12.54,24.5h-.12v-2.18s.02,0,.02,0c0-.02.01-.04.02-.06l.06-.19,2.4,2.33-.2.06c-.06.02-.12.03-.18.03h-2Zm.12-.25h1.73l-1.73-1.68v1.68Zm3.25-.8l-2.42-2.34.09-.09,7.84-7.61,2.42,2.35-7.93,7.7Zm-2.06-2.34l2.06,2,7.57-7.35-2.06-2-7.57,7.36Zm10.98-6.32l-2.42-2.35.12-.12c.32-.31.76-.49,1.2-.49h0c.36,0,.71.11,1,.32v-.03l.21.2c.32.31.5.73.5,1.18s-.18.86-.5,1.18l-.12.11Zm-2.06-2.35l2.06,2c.24-.26.37-.59.37-.94s-.13-.68-.37-.94l-.06-.05c-.27-.27-.65-.42-1.03-.42h0c-.36,0-.7.13-.97.36Z"/><path class="cls-2" d="m56.99,42.53h8.99c.27,0,.53-.1.66-.26.14-.16.14-.36,0-.53s-.39-.26-.66-.26h-8.99c-.27,0-.53.1-.66.26s-.14.36,0,.53.39.26.66.26Z"/><path class="cls-2" d="m65.98,42.66h-8.99c-.31,0-.6-.12-.76-.31-.17-.21-.17-.48,0-.69.16-.19.45-.31.76-.31h8.99c.31,0,.59.12.76.31.17.21.17.48,0,.69-.16.19-.45.31-.76.31Zm-8.99-1.05c-.24,0-.45.08-.57.22-.1.12-.1.25,0,.36.11.14.33.22.57.22h8.99c.24,0,.45-.08.57-.22.1-.12.1-.25,0-.36-.11-.13-.33-.22-.57-.22h-8.99Z"/><path class="cls-2" d="m53.88,48.84h14.14c.29,0,.56-.1.71-.26.15-.16.15-.36,0-.53-.15-.16-.41-.26-.71-.26h-14.14c-.29,0-.56.1-.71.26-.15.16-.15.36,0,.53.15.16.41.26.71.26Z"/><path class="cls-2" d="m68.03,48.97h-14.14c-.33,0-.63-.11-.8-.3-.19-.21-.19-.48,0-.69.17-.19.47-.3.8-.3h14.14c.33,0,.63.11.8.3.19.21.19.48,0,.69-.17.19-.47.3-.8.3Zm-14.14-1.05c-.26,0-.49.08-.61.22-.1.12-.1.24,0,.36.12.14.36.22.61.22h14.14c.26,0,.49-.08.61-.22.1-.12.1-.24,0-.36-.12-.14-.36-.22-.61-.22h-14.14Z"/><path class="cls-2" d="m52.84,54.1h9.91c.3,0,.57-.1.72-.26.15-.16.15-.36,0-.53-.15-.16-.42-.26-.72-.26h-9.91c-.3,0-.57.1-.72.26-.15.16-.15.36,0,.53.15.16.42.26.72.26Z"/><path class="cls-2" d="m62.76,54.23h-9.91c-.33,0-.64-.11-.81-.3-.19-.21-.19-.48,0-.69.17-.19.47-.3.81-.3h9.91c.33,0,.64.11.81.3.19.21.19.48,0,.69-.17.19-.47.3-.81.3Zm-9.91-1.05c-.26,0-.5.08-.62.22-.1.12-.1.24,0,.36.12.14.36.22.62.22h9.91c.26,0,.5-.08.62-.22.1-.12.1-.24,0-.36-.12-.14-.36-.22-.62-.22h-9.91Z"/><path class="cls-2" d="m57.62,60.41h-4.9c-.25,0-.48.1-.61.26s-.13.36,0,.53.36.26.61.26h4.9c.25,0,.48-.1.61-.26.13-.16.13-.36,0-.53-.13-.16-.36-.26-.61-.26Z"/><path class="cls-2" d="m57.62,61.59h-4.9c-.29,0-.56-.12-.71-.31-.16-.21-.16-.47,0-.68.15-.19.42-.31.71-.31h4.9c.29,0,.56.12.71.31.16.21.16.47,0,.68-.15.19-.42.31-.71.31Zm-4.9-1.05c-.21,0-.41.08-.51.21-.09.12-.09.25,0,.37.1.13.3.21.51.21h4.9c.21,0,.41-.08.51-.21.09-.12.09-.25,0-.37-.1-.13-.3-.22-.51-.22h-4.9Z"/></g></svg>