<?xml version="1.0" encoding="UTF-8"?><svg id="Layer_2" xmlns="http://www.w3.org/2000/svg" xmlns:xlink="http://www.w3.org/1999/xlink" viewBox="0 0 103.03 103.03"><defs><style>.cls-1{fill:url(#linear-gradient);}.cls-2{fill:#fff;}</style><linearGradient id="linear-gradient" x1="-1080.7" y1="428.77" x2="-1080.89" y2="429.3" gradientTransform="translate(119773.92 3502.7) rotate(-20) scale(103 -103)" gradientUnits="userSpaceOnUse"><stop offset="0" stop-color="#ce43ff"/><stop offset=".51" stop-color="#4280ff"/><stop offset="1" stop-color="#70ed9b"/></linearGradient></defs><g id="Layer_1-2"><g id="Homepage"><g id="Home-ALT---Desktop"><g id="Step-By-Step-Block_-Content-_-Links"><g id="Step-By-Step-Components"><g id="Group-4"><circle id="Oval" class="cls-1" cx="51.51" cy="51.51" r="51.5"/></g></g></g></g></g><path class="cls-2" d="m69.11,46.99l-8.89,9.61-4.01-4.34c-.6-.65-1.54-.65-2.14,0-.6.65-.6,1.66,0,2.31l5.06,5.47c.3.32.68.49,1.05.49s.75-.16,1.05-.49l9.94-10.75c.6-.65.6-1.66,0-2.31-.53-.61-1.5-.61-2.06,0h0Z"/><path class="cls-2" d="m63.63,36.53c-8.82,0-16,7.18-16,16s7.18,16,16,16c7,0,13.13-4.47,15.26-11.13.26-.78-.19-1.64-.97-1.86-.78-.26-1.64.19-1.86.97-1.75,5.4-6.73,9.04-12.43,9.04-7.18,0-13.02-5.84-13.02-13.02s5.84-13.02,13.02-13.02,13.02,5.84,13.02,13.02c0,.82.67,1.49,1.49,1.49s1.49-.67,1.49-1.49c0-8.82-7.18-16-16-16h0Z"/></g></svg>