<?xml version="1.0" encoding="UTF-8"?><svg id="Layer_2" xmlns="http://www.w3.org/2000/svg" xmlns:xlink="http://www.w3.org/1999/xlink" viewBox="0 0 103.03 103.03"><defs><style>.cls-1{fill:url(#linear-gradient);}.cls-2{fill:#fff;}</style><linearGradient id="linear-gradient" x1="-927.64" y1="429.28" x2="-927.84" y2="429.81" gradientTransform="translate(104977.75 8944.29) rotate(-20) scale(103 -103)" gradientUnits="userSpaceOnUse"><stop offset="0" stop-color="#ce43ff"/><stop offset=".51" stop-color="#4280ff"/><stop offset="1" stop-color="#70ed9b"/></linearGradient></defs><g id="Layer_1-2"><g id="Homepage"><g id="Home-ALT---Desktop"><g id="Step-By-Step-Block_-Content-_-Links"><g id="Step-By-Step-Components"><g id="Group-4"><circle id="Oval" class="cls-1" cx="51.51" cy="51.51" r="51.5"/></g></g></g></g></g><path class="cls-2" d="m71.8,62.29c-2.67,2.56-6.18,3.95-9.92,3.84-3.73-.11-7.14-1.6-9.7-4.27-2.56-2.67-3.95-6.19-3.84-9.92.11-3.73,1.6-7.15,4.27-9.71,2.77-2.45,6.08-3.84,9.7-3.84h.32c3.73.11,7.14,1.6,9.7,4.27,2.56,2.67,3.95,6.19,3.84,9.92-.11,3.73-1.6,7.15-4.37,9.71h0Zm2.13-21.01c-2.99-3.09-6.93-4.91-11.2-5.01-4.27-.11-8.32,1.49-11.41,4.37-3.09,2.99-4.91,6.93-5.01,11.2-.11,4.27,1.49,8.32,4.37,11.41,2.99,3.09,6.93,4.91,11.2,5.01h.43c4.16,0,8-1.6,10.98-4.37,3.09-2.99,4.91-6.93,5.01-11.2.11-4.27-1.49-8.32-4.37-11.41h0Z"/><path class="cls-2" d="m63.19,43.87c1.76,0,3.11,1.35,3.11,3.13,0,.63.42,1.04,1.04,1.04s1.04-.42,1.04-1.04c0-2.92-2.28-5.21-5.19-5.21s-5.19,2.29-5.19,5.21v4.17h-.62c-.52,0-1.04.42-1.04,1.04s.42,1.04,1.04,1.04h.62v3.23c-.1.63-.62.94-1.76,1.46l-.31.1c-.62.21-.93.83-.73,1.46.1.63.62,1.04,1.25,1.04h10.89c.62,0,1.04-.42,1.04-1.04s-.42-1.04-1.04-1.04h-8.09c.42-.42.73-1.04.83-1.88v-3.33h3.94c.52,0,1.04-.42,1.04-1.04s-.42-1.04-1.04-1.04h-3.94v-4.17c0-1.77,1.35-3.13,3.11-3.13h0Z"/></g></svg>