<?xml version="1.0" encoding="UTF-8"?>
<svg width="18px" height="18px" viewBox="0 0 18 18" version="1.1" xmlns="http://www.w3.org/2000/svg" xmlns:xlink="http://www.w3.org/1999/xlink">
    <title>Icons/icon-check-circle Copy 18</title>
    <g id="Homepage" stroke="none" stroke-width="1" fill="none" fill-rule="evenodd">
        <g id="Home-ALT---Desktop" transform="translate(-966.000000, -8178.000000)" fill="#CE43FF" fill-rule="nonzero">
            <g id="Generic-Content" transform="translate(0.000000, 7941.000000)">
                <g id="Icons/icon-check-circle-Copy-18" transform="translate(966.199995, 237.199959)">
                    <path d="M2.11053098,3.08291016 C4.64265244,0.120331346 8.82179682,-0.823891078 12.3816497,0.762286672 C12.7852277,0.942110514 12.9666162,1.41505114 12.7867924,1.81862913 C12.6069686,2.22220711 12.1340279,2.40359568 11.7304499,2.22377184 C8.81784305,0.925990046 5.39854311,1.69853567 3.32680737,4.12246378 C1.25507163,6.5463919 1.02442192,10.0442826 2.75993761,12.7192596 C4.4954533,15.3942366 7.78370577,16.6090759 10.8415037,15.7049805 C13.8298062,14.8214328 15.9023258,12.1198633 15.9966892,9.02179873 L16.0000498,8.80502926 L16.0000498,8.06902926 C16.0000498,7.62720146 16.358222,7.26902926 16.8000498,7.26902926 C17.2103185,7.26902926 17.5484555,7.57786141 17.5946676,7.97573236 L17.6000498,8.06902926 L17.6000498,8.80548667 C17.5978214,12.7027302 15.0324684,16.1343141 11.2951598,17.2393195 C7.55785124,18.344325 3.53887601,16.8595213 1.41769016,13.5901051 C-0.703495686,10.3206888 -0.421590483,6.04548897 2.11053098,3.08291016 Z" id="Path"></path>
                    <path d="M16.2340818,1.8396266 C16.546345,1.52705108 17.0528769,1.52679794 17.3654525,1.8390612 C17.6539837,2.12730421 17.6763941,2.58107791 17.4325311,2.89503279 L17.3660179,2.97043191 L9.36601787,10.9784319 C9.077673,11.2670651 8.62370562,11.2893756 8.30975748,11.0452869 L8.23436439,10.9787147 L5.83436439,8.57871468 C5.52194496,8.26629525 5.52194496,7.75976326 5.83436439,7.44734383 C6.12275156,7.15895666 6.5765364,7.13677303 6.89036937,7.38079295 L6.96573524,7.44734383 L8.79920465,9.28084137 L16.2340818,1.8396266 Z" id="Path"></path>
                </g>
            </g>
        </g>
    </g>
</svg>