<svg width="18" height="18" viewBox="0 0 18 18" fill="none" xmlns="http://www.w3.org/2000/svg">
<path fill-rule="evenodd" clip-rule="evenodd" d="M0.200195 9.00019C0.200195 4.14009 4.14009 0.200195 9.00019 0.200195C13.8603 0.200195 17.8002 4.14009 17.8002 9.00019C17.8002 13.8603 13.8603 17.8002 9.00019 17.8002C4.14009 17.8002 0.200195 13.8603 0.200195 9.00019ZM16.2002 9.00019C16.2002 5.02374 12.9766 1.8002 9.00019 1.8002C5.02374 1.8002 1.8002 5.02374 1.8002 9.00019C1.8002 12.9766 5.02374 16.2002 9.00019 16.2002C12.9766 16.2002 16.2002 12.9766 16.2002 9.00019Z" fill="#4280FF"/>
<path d="M8.43451 5.23431C8.7229 4.94593 9.17668 4.92374 9.49051 5.16776L9.56588 5.23431L12.7659 8.43431C13.0543 8.7227 13.0765 9.17649 12.8324 9.49032L12.7659 9.56569L9.56588 12.7657C9.25346 13.0781 8.74693 13.0781 8.43451 12.7657C8.14612 12.4773 8.12394 12.0235 8.36796 11.7097L8.43451 11.6343L11.0682 9L8.43451 6.36569C8.14612 6.0773 8.12394 5.62351 8.36796 5.30968L8.43451 5.23431Z" fill="#4280FF"/>
<path d="M12.2 8.2002C12.6418 8.2002 13 8.55837 13 9.0002C13 9.41046 12.6912 9.7486 12.2933 9.79481L12.2 9.8002H5.8C5.35817 9.8002 5 9.44202 5 9.0002C5 8.58993 5.30883 8.25179 5.7067 8.20558L5.8 8.2002H12.2Z" fill="#4280FF"/>
</svg>
