<svg width="41" height="41" viewBox="0 0 41 41" fill="none" xmlns="http://www.w3.org/2000/svg">
<path fill-rule="evenodd" clip-rule="evenodd" d="M20.0029 0C8.95706 0 0.00292969 9.14068 0.00292969 20.4167C0.00292969 31.6927 8.95706 40.8333 20.0029 40.8333C31.0488 40.8333 40.0029 31.6927 40.0029 20.4167C40.0029 9.14068 31.0488 0 20.0029 0ZM20.0029 2.17778C29.8547 2.17778 37.8696 10.3597 37.8696 20.4167C37.8696 30.4736 29.8547 38.6556 20.0029 38.6556C10.1512 38.6556 2.13626 30.4736 2.13626 20.4167C2.13626 10.3597 10.1512 2.17778 20.0029 2.17778Z" fill="#70ED9B"/>
<path fill-rule="evenodd" clip-rule="evenodd" d="M26.9671 24.1085C26.9671 25.9877 25.4923 27.525 23.69 27.525H15.5001C13.6973 27.525 12.2231 25.9877 12.2231 24.1085V15.8903C12.2231 14.0111 13.6973 12.4738 15.5001 12.4738H23.69C25.4923 12.4738 26.9671 14.0111 26.9671 15.8903V24.1085ZM23.8406 10.833H15.3491C12.7455 10.833 10.6152 13.0535 10.6152 15.7679V24.2309C10.6152 26.9453 12.7455 29.1663 15.3491 29.1663H23.8406C26.4441 29.1663 28.5744 26.9453 28.5744 24.2309V15.7679C28.5744 13.0535 26.4441 10.833 23.8406 10.833Z" fill="#70ED9B"/>
<path fill-rule="evenodd" clip-rule="evenodd" d="M20.003 23.3733C18.4031 23.3733 17.1063 22.0493 17.1063 20.4166C17.1063 18.7834 18.4031 17.4594 20.003 17.4594C21.6029 17.4594 22.8997 18.7834 22.8997 20.4161C22.8997 22.0493 21.6029 23.3733 20.003 23.3733ZM20.003 15.833C17.5233 15.833 15.5132 17.8852 15.5132 20.4161C15.5132 22.9475 17.5233 24.9997 20.003 24.9997C22.4827 24.9997 24.4928 22.9475 24.4928 20.4166C24.4928 17.8852 22.4827 15.833 20.003 15.833Z" fill="#70ED9B"/>
<path fill-rule="evenodd" clip-rule="evenodd" d="M26.1252 15.417C26.1252 16.1076 25.5771 16.667 24.9008 16.667C24.2244 16.667 23.6763 16.1076 23.6763 15.417C23.6763 14.7264 24.2244 14.167 24.9008 14.167C25.5771 14.167 26.1252 14.7264 26.1252 15.417Z" fill="#70ED9B"/>
</svg>
