<?xml version="1.0" encoding="UTF-8"?>
<svg xmlns="http://www.w3.org/2000/svg" width="233" height="117" viewBox="0 0 233 117" fill="none">
  <g clip-path="url(#clip0_0_10796)">
    <rect width="233" height="117" rx="4" fill="#1D1E2C"></rect>
    <mask id="mask0_0_10796" style="mask-type:luminance" maskUnits="userSpaceOnUse" x="0" y="0" width="233" height="117">
      <rect width="233" height="117" rx="4" fill="white"></rect>
    </mask>
    <g mask="url(#mask0_0_10796)">
      <path fill-rule="evenodd" clip-rule="evenodd" d="M238.019 -41.9136C219.39 -46.1949 201.57 -46.738 185.065 -43.5297C166.802 -39.9854 152.446 -33.0578 143.549 -23.4954C133.516 -12.7115 133.055 -1.69541 142.242 7.51621C148.761 14.066 160.142 21.8051 176.902 31.0986C191.881 39.6 203.59 47.1965 211.697 53.6707C218.551 59.1528 222.507 65.7452 223.791 73.8182C224.934 81.0439 220.835 89.7356 211.609 99.6524C203.589 108.273 192.788 115.24 178.596 120.95C164.139 126.763 148.214 130.213 129.914 131.497C111.187 132.809 91.7535 131.191 72.1551 126.687C48.2595 121.196 29.8369 113.375 17.3979 103.439C4.98092 93.5238 -2.08974 83.8293 -3.61698 74.6247L-48.4132 82.528C-46.2193 95.7494 -36.8916 109.013 -20.6905 121.95C-4.5019 134.88 18.8758 144.922 48.7931 151.797C74.3205 157.663 100.263 159.727 125.905 157.93C152.182 156.087 176.504 150.729 198.204 142.004C220.133 133.181 237.581 121.905 250.063 108.489C264.388 93.0918 270.627 78.8046 268.605 66.018C266.693 54.0018 260.367 43.6234 249.793 35.1655C240.587 27.814 227.656 19.3966 211.223 10.0708C193.303 0.132676 185.583 -5.93103 182.254 -9.27578C179.728 -11.8081 180.557 -13.1043 182.003 -14.6584C182.864 -15.5837 184.305 -17.1323 190.641 -18.3622C196.749 -19.5492 205.054 -19.0106 214.657 -16.8033C223.261 -14.8263 229.947 -11.8058 235.096 -7.5719C240.833 -2.85131 244.791 1.89428 246.859 6.53367L290.563 -4.98643C287.956 -10.8367 283.611 -16.6171 277.615 -22.2213C276.308 -23.4432 274.921 -24.657 273.458 -25.8614C264.601 -33.1441 252.678 -38.5449 238.019 -41.9136Z" fill="url(#paint0_linear_0_10796)"></path>
    </g>
  </g>
  <defs>
    <linearGradient id="paint0_linear_0_10796" x1="271.131" y1="12.8294" x2="205.804" y2="-52.4311" gradientUnits="userSpaceOnUse">
      <stop stop-color="#CE43FF"></stop>
      <stop offset="0.514676" stop-color="#4280FF"></stop>
      <stop offset="1" stop-color="#70ED9B"></stop>
    </linearGradient>
    <clipPath id="clip0_0_10796">
      <rect width="233" height="117" fill="white"></rect>
    </clipPath>
  </defs>
</svg>
