<?xml version="1.0" encoding="UTF-8"?>
<svg xmlns="http://www.w3.org/2000/svg" width="233" height="117" viewBox="0 0 233 117" fill="none">
  <g clip-path="url(#clip0_0_10772)">
    <rect width="233" height="117" rx="4" fill="#1D1E2C"></rect>
    <mask id="mask0_0_10772" style="mask-type:luminance" maskUnits="userSpaceOnUse" x="0" y="0" width="233" height="117">
      <rect width="233" height="117" rx="4" fill="white"></rect>
    </mask>
    <g mask="url(#mask0_0_10772)">
      <path fill-rule="evenodd" clip-rule="evenodd" d="M144.07 -27.7476C130.447 -24.3365 118.601 -18.7484 108.866 -11.1429C98.0933 -2.7313 91.0063 6.59197 88.3718 15.8191C85.4007 26.2249 88.7734 33.59 97.8599 36.5557C104.312 38.6688 114.344 39.9389 128.414 40.4326C141.055 41.0016 151.254 42.0688 158.721 43.6028C165.036 44.9053 169.825 47.9013 173.358 52.7578C176.516 57.1065 176.732 64.1634 174 73.7326C171.625 82.0505 166.878 90.214 159.493 98.6856C151.968 107.313 142.694 114.883 131.143 121.827C119.321 128.933 106.06 134.355 91.7288 137.944C74.2547 142.319 59.5862 143.344 48.1296 140.989C36.694 138.64 28.832 134.652 24.7621 129.136L-1.92612 149.251C3.91999 157.174 14.4501 162.746 29.3706 165.811C44.2806 168.875 62.9335 167.652 84.8109 162.173C103.478 157.499 121.149 150.197 137.335 140.468C153.921 130.497 168.056 118.877 179.351 105.928C190.763 92.838 198.424 79.6365 202.12 66.6911C206.362 51.8337 205.68 40.4003 200.092 32.7045C194.833 25.476 187.23 20.7921 177.487 18.7824C169.008 17.0405 157.736 15.8434 143.868 15.2197C128.823 14.6911 121.747 13.2967 118.451 12.2177C115.953 11.4025 116.064 10.2775 116.492 8.7779C116.747 7.885 117.173 6.39071 120.911 3.47221C124.514 0.657767 130.13 -1.75956 137.152 -3.51769C143.444 -5.0933 148.829 -5.34633 153.611 -4.29219C158.941 -3.11553 163.115 -1.32891 166.016 1.01826L190.783 -21.1002C187.125 -24.0603 182.353 -26.3951 176.558 -28.0636C175.295 -28.4274 173.983 -28.7597 172.623 -29.0599C164.396 -30.8732 154.79 -30.4318 144.07 -27.7476Z" fill="url(#paint0_linear_0_10772)"></path>
    </g>
  </g>
  <defs>
    <linearGradient id="paint0_linear_0_10772" x1="184.005" y1="-2.95641" x2="119.474" y2="-23.8875" gradientUnits="userSpaceOnUse">
      <stop stop-color="#CE43FF"></stop>
      <stop offset="0.514676" stop-color="#4280FF"></stop>
      <stop offset="1" stop-color="#70ED9B"></stop>
    </linearGradient>
    <clipPath id="clip0_0_10772">
      <rect width="233" height="117" fill="white"></rect>
    </clipPath>
  </defs>
</svg>
