<?xml version="1.0" encoding="UTF-8"?>
<svg xmlns="http://www.w3.org/2000/svg" width="233" height="117" viewBox="0 0 233 117" fill="none">
  <g clip-path="url(#clip0_0_10788)">
    <rect width="233" height="117" rx="4" fill="#1D1E2C"></rect>
    <mask id="mask0_0_10788" style="mask-type:luminance" maskUnits="userSpaceOnUse" x="0" y="0" width="233" height="117">
      <rect width="233" height="117" rx="4" fill="white"></rect>
    </mask>
    <g mask="url(#mask0_0_10788)">
      <path fill-rule="evenodd" clip-rule="evenodd" d="M19.0702 -56.7476C5.44716 -53.3365 -6.39911 -47.7484 -16.1337 -40.1429C-26.9067 -31.7313 -33.9937 -22.408 -36.6282 -13.1809C-39.5993 -2.77507 -36.2266 4.58997 -27.1401 7.55572C-20.6877 9.66884 -10.6563 10.9389 3.41444 11.4326C16.0555 12.0016 26.2544 13.0688 33.7208 14.6028C40.0361 15.9053 44.8247 18.9013 48.3579 23.7578C51.5163 28.1065 51.7322 35.1634 49 44.7326C46.6251 53.0505 41.8785 61.214 34.4927 69.6856C26.9677 78.3129 17.6942 85.8826 6.143 92.827C-5.67875 99.9326 -18.9396 105.355 -33.2712 108.944C-50.7453 113.319 -65.4138 114.344 -76.8704 111.989C-88.306 109.64 -96.168 105.652 -100.238 100.136L-126.926 120.251C-121.08 128.174 -110.55 133.746 -95.6294 136.811C-80.7194 139.875 -62.0665 138.652 -40.1891 133.173C-21.5219 128.499 -3.85101 121.197 12.3349 111.468C28.9213 101.497 43.0563 89.8772 54.351 76.9281C65.7633 63.838 73.4238 50.6365 77.1199 37.6911C81.3619 22.8337 80.6803 11.4003 75.0917 3.7045C69.8325 -3.52397 62.2298 -8.20789 52.4867 -10.2176C44.0084 -11.9595 32.7361 -13.1566 18.8682 -13.7803C3.8228 -14.3089 -3.25341 -15.7033 -6.54852 -16.7823C-9.04653 -17.5975 -8.93626 -18.7225 -8.50811 -20.2221C-8.25317 -21.115 -7.82652 -22.6093 -4.08896 -25.5278C-0.486307 -28.3422 5.12966 -30.7596 12.1522 -32.5177C18.4439 -34.0933 23.8285 -34.3463 28.6114 -33.2922C33.9414 -32.1155 38.1148 -30.3289 41.0161 -27.9817L65.7831 -50.1002C62.1251 -53.0603 57.3528 -55.3951 51.5583 -57.0636C50.295 -57.4274 48.9827 -57.7597 47.623 -58.0599C39.3963 -59.8732 29.7899 -59.4318 19.0702 -56.7476Z" fill="url(#paint0_linear_0_10788)"></path>
    </g>
  </g>
  <defs>
    <linearGradient id="paint0_linear_0_10788" x1="59.0052" y1="-31.9564" x2="-5.52615" y2="-52.8875" gradientUnits="userSpaceOnUse">
      <stop stop-color="#CE43FF"></stop>
      <stop offset="0.514676" stop-color="#4280FF"></stop>
      <stop offset="1" stop-color="#70ED9B"></stop>
    </linearGradient>
    <clipPath id="clip0_0_10788">
      <rect width="233" height="117" fill="white"></rect>
    </clipPath>
  </defs>
</svg>
